<svg width="24" height="24" viewBox="0 0 24 24" fill="none" xmlns="http://www.w3.org/2000/svg">
<path d="M22.58 7.34999L12.475 1.89699C12.178 1.73699 11.821 1.73699 11.525 1.89699L1.42499 7.34999C0.938988 7.61399 0.757988 8.21999 1.01999 8.70599C1.19999 9.04099 1.54499 9.23099 1.89999 9.23099C2.05999 9.23099 2.22399 9.19299 2.37499 9.11099L3.10899 8.71499L4.69899 19.965C4.91499 21.179 6.00899 22.027 7.35899 22.027H16.641C17.991 22.027 19.085 21.179 19.303 19.939L20.891 8.71399L21.628 9.11199C22.113 9.37499 22.72 9.19399 22.982 8.70799C23.245 8.22199 23.062 7.61499 22.578 7.35299L22.58 7.34999ZM12 15.435C10.205 15.435 8.74999 13.98 8.74999 12.185C8.74999 10.39 10.205 8.93499 12 8.93499C13.795 8.93499 15.25 10.39 15.25 12.185C15.25 13.98 13.795 15.435 12 15.435Z" fill="#FF6600"/>
</svg>
