<svg width="178" height="58" viewBox="0 0 178 58" fill="none" xmlns="http://www.w3.org/2000/svg">
<g clip-path="url(#clip0_76242_5578)">
<path d="M38.58 24.35L28.475 18.897C28.178 18.737 27.821 18.737 27.525 18.897L17.425 24.35C16.939 24.614 16.758 25.22 17.02 25.706C17.2 26.041 17.545 26.231 17.9 26.231C18.06 26.231 18.224 26.193 18.375 26.111L19.109 25.715L20.699 36.965C20.915 38.179 22.009 39.027 23.359 39.027H32.641C33.991 39.027 35.085 38.179 35.303 36.939L36.891 25.714L37.628 26.112C38.113 26.375 38.72 26.194 38.982 25.708C39.245 25.222 39.062 24.615 38.578 24.353L38.58 24.35ZM28 32.435C26.205 32.435 24.75 30.98 24.75 29.185C24.75 27.39 26.205 25.935 28 25.935C29.795 25.935 31.25 27.39 31.25 29.185C31.25 30.98 29.795 32.435 28 32.435Z" fill="#FF6600"/>
<path d="M56.396 30.862L56.864 32.932C58.484 32.482 60.554 31.888 62.462 31.312L62.174 29.368C60.068 29.944 57.872 30.538 56.396 30.862ZM56.594 25.048V27.028H62.48V25.048H56.594ZM58.61 21.736V36.154C58.61 36.406 58.52 36.46 58.304 36.46C58.088 36.478 57.44 36.478 56.81 36.442C57.08 37.054 57.35 37.972 57.386 38.548C58.574 38.548 59.366 38.476 59.942 38.116C60.518 37.774 60.698 37.198 60.698 36.154V21.736H58.61ZM64.37 28.414V30.304H72.776V28.414H64.37ZM64.406 31.942V33.832H72.74V31.942H64.406ZM64.514 35.542V37.522H73.388V35.542H64.514ZM65.036 21.826C64.208 24.49 62.75 27.118 61.112 28.738C61.562 29.116 62.318 29.944 62.642 30.34C64.388 28.432 66.044 25.372 67.07 22.366L65.036 21.826ZM65.846 24.832H65.432L63.776 26.524V38.638H65.846V26.794H72.992V24.832H65.846ZM68.078 25.858V36.604H70.094V25.858H68.078ZM67.538 22.6C68.006 23.41 68.492 24.508 68.672 25.21L70.616 24.364C70.4 23.662 69.896 22.636 69.41 21.862L67.538 22.6ZM86.438 25.75C84.638 31.744 80.822 34.984 74.45 36.568C74.864 37.072 75.53 38.08 75.764 38.602C82.37 36.658 86.51 32.968 88.688 26.362L86.438 25.75ZM79.49 25.876L77.474 26.506C79.742 32.608 83.54 36.712 90.146 38.476C90.488 37.882 91.118 36.928 91.622 36.46C85.304 35.002 81.344 31.168 79.49 25.876ZM74.792 24.742V26.866H91.28V24.742H74.792ZM81.416 22.204C81.866 23.104 82.334 24.292 82.496 25.03L84.944 24.274C84.746 23.518 84.188 22.366 83.72 21.52L81.416 22.204ZM97.364 22.654V24.202H109.082V22.654H97.364ZM97.868 24.976V26.434H108.614V24.976H97.868ZM96.824 27.262V28.81H109.46V27.262H96.824ZM99.974 31.996V33.382H106.58V31.996H99.974ZM105.86 29.566V36.478C105.86 36.694 105.77 36.766 105.518 36.784C105.284 36.784 104.366 36.784 103.664 36.748C103.916 37.27 104.204 38.044 104.294 38.584C105.554 38.584 106.508 38.584 107.192 38.296C107.858 37.99 108.074 37.504 108.074 36.514V29.566H105.86ZM102.08 21.718V28.522H104.24V21.718H102.08ZM99.956 34.318V35.74H106.544V34.318H99.956ZM98.39 29.566V32.788C98.39 34.174 98.3 35.884 97.256 37.126C97.706 37.396 98.588 38.224 98.912 38.656C100.262 37.126 100.532 34.66 100.532 32.824V29.566H98.39ZM99.578 29.566V31.06H106.634V29.566H99.578ZM93.296 23.5C94.16 24.166 95.402 25.12 95.996 25.714L97.292 24.004C96.68 23.464 95.402 22.6 94.538 22.006L93.296 23.5ZM92.342 28.486C93.296 29.062 94.718 29.926 95.384 30.448L96.482 28.594C95.78 28.108 94.34 27.334 93.404 26.83L92.342 28.486ZM92.774 37.126L94.502 38.314C95.42 36.586 96.446 34.462 97.238 32.554L95.708 31.366C94.808 33.454 93.62 35.74 92.774 37.126ZM117.794 27.73V38.62H120.044V27.73H117.794ZM114.77 30.916H123.284V31.888H114.77V30.916ZM114.77 28.414H123.284V29.368H114.77V28.414ZM112.646 26.758V33.544H125.498V26.758H112.646ZM110.954 34.48V36.334H127.082V34.48H110.954ZM113.924 23.716H116.462V24.76H113.924V23.716ZM111.998 22.42V26.038H118.478V22.42H111.998ZM121.466 23.716H124.058V24.76H121.466V23.716ZM119.558 22.42V26.038H126.074V22.42H119.558Z" fill="#FF6600"/>
</g>
<defs>
<clipPath id="clip0_76242_5578">
<rect width="112" height="26" fill="white" transform="translate(16 16)"/>
</clipPath>
</defs>
</svg>
