<svg width="178" height="58" viewBox="0 0 178 58" fill="none" xmlns="http://www.w3.org/2000/svg">
<g clip-path="url(#clip0_76242_5585)">
<path d="M28 28.816C29.355 28.816 30.872 28.666 31.84 27.56C32.654 26.63 32.918 25.192 32.646 23.168C32.266 20.343 30.529 18.656 28 18.656C25.471 18.656 23.734 20.343 23.354 23.17C23.082 25.192 23.346 26.63 24.16 27.56C25.128 28.667 26.645 28.816 28 28.816ZM24.84 23.368C25.002 22.168 25.627 20.156 28 20.156C30.373 20.156 30.998 22.169 31.16 23.368C31.367 24.918 31.217 25.995 30.71 26.573C30.255 27.093 29.444 27.316 28 27.316C26.556 27.316 25.745 27.093 25.29 26.573C24.783 25.995 24.633 24.917 24.84 23.368ZM36.28 36.236C35.403 32.71 31.998 30.246 28 30.246C24.002 30.246 20.597 32.71 19.72 36.236C19.548 36.928 19.692 37.636 20.115 38.176C20.523 38.696 21.155 38.996 21.848 38.996H34.152C34.845 38.996 35.477 38.696 35.885 38.176C36.309 37.636 36.452 36.929 36.279 36.236H36.28ZM34.704 37.252C34.578 37.412 34.388 37.498 34.152 37.498H21.848C21.613 37.498 21.422 37.413 21.296 37.252C21.159 37.078 21.116 36.84 21.176 36.598C21.886 33.743 24.693 31.748 28 31.748C31.307 31.748 34.114 33.742 34.824 36.598C34.884 36.84 34.841 37.078 34.704 37.252Z" fill="#44444F"/>
<path d="M61.958 23.482V25.444H73.442V23.482H61.958ZM64.316 28.468H70.886V30.25H64.316V28.468ZM62.354 26.704V32.014H72.956V26.704H62.354ZM64.046 32.194L62.282 32.734C64.244 36.118 67.574 37.936 72.452 38.602C72.722 38.008 73.262 37.144 73.712 36.676C69.05 36.244 65.648 34.786 64.046 32.194ZM66.512 21.826V30.034C66.512 32.986 66.044 35.74 61.202 36.82C61.67 37.27 62.3 38.134 62.552 38.62C67.718 37.072 68.636 33.724 68.636 30.052V21.826H66.512ZM60.59 21.664C59.618 24.238 57.944 26.794 56.234 28.414C56.594 28.936 57.17 30.124 57.35 30.628C59.402 28.594 61.382 25.372 62.606 22.312L60.59 21.664ZM58.844 26.686V38.656H60.896V24.652L60.878 24.634L58.844 26.686ZM77.78 22.924V24.976H88.832V22.924H77.78ZM77.78 27.064V29.08H88.868V27.064H77.78ZM77.744 31.312V33.346H88.94V31.312H77.744ZM76.538 22.924V29.386C76.538 31.924 76.376 35.146 74.414 37.324C74.882 37.594 75.764 38.314 76.106 38.728C78.32 36.316 78.68 32.266 78.68 29.404V22.924H76.538ZM88.076 22.924V36.064C88.076 36.37 87.95 36.478 87.608 36.496C87.284 36.496 86.096 36.514 85.07 36.442C85.358 37 85.682 37.936 85.772 38.512C87.41 38.53 88.49 38.494 89.246 38.152C89.966 37.81 90.218 37.234 90.218 36.082V22.924H88.076ZM82.082 23.734V38.404H84.278V23.734H82.082ZM92.882 27.172V29.08H109.082V27.172H92.882ZM94.448 23.662V25.534H104.744V23.662H94.448ZM97.616 33.454V35.074H105.662V33.454H97.616ZM97.616 36.28V38.098H105.662V36.28H97.616ZM98.696 21.718V28.234H100.82V21.718H98.696ZM106.616 22.24C103.466 26.758 98.174 30.196 92.324 32.068C92.72 32.5 93.368 33.4 93.62 33.868C99.452 31.726 104.942 28.108 108.47 23.194L106.616 22.24ZM96.41 30.52V38.638H98.57V32.284H104.78V38.566H107.03V30.52H96.41ZM120.404 23.734V33.67H122.528V23.734H120.404ZM124.598 22.06V36.046C124.598 36.37 124.472 36.478 124.13 36.478C123.788 36.478 122.654 36.496 121.574 36.46C121.88 37.054 122.186 38.008 122.294 38.62C123.914 38.62 125.03 38.548 125.786 38.206C126.488 37.864 126.74 37.27 126.74 36.046V22.06H124.598ZM113.618 26.524V28.486H118.244V26.524H113.618ZM110.972 22.528V24.526H119.918V22.528H110.972ZM112.52 31.276C113.564 31.96 114.986 32.932 115.652 33.58L116.732 31.762C116.03 31.168 114.572 30.268 113.528 29.674L112.52 31.276ZM117.488 26.524V26.956C116.786 32.05 114.608 35.38 111.368 37.09C111.854 37.414 112.664 38.206 112.988 38.674C116.3 36.748 118.712 32.86 119.612 26.902L118.262 26.452L117.902 26.524H117.488ZM113.942 23.626C113.402 26.272 112.178 29.512 110.234 31.366C110.684 31.708 111.386 32.356 111.764 32.77C113.924 30.646 115.274 27.154 116.102 24.04L113.942 23.626ZM129.782 23.014V24.85H144.326V23.014H129.782ZM130.664 25.804V27.514H143.624V25.804H130.664ZM129.008 28.522V30.34H144.956V28.522H129.008ZM135.848 21.718V29.98H138.044V21.718H135.848ZM135.56 28.99C134.066 30.772 131.096 32.482 128.36 33.328C128.828 33.76 129.458 34.552 129.782 35.074C132.608 34.03 135.614 32.068 137.432 29.836L135.56 28.99ZM138.584 29.62L136.64 30.106C138.008 34.084 140.276 36.874 144.164 38.206C144.47 37.612 145.1 36.748 145.586 36.298C141.968 35.29 139.682 32.86 138.584 29.62ZM142.94 30.682C142.004 31.6 140.42 32.752 139.25 33.454L140.618 34.588C141.842 33.976 143.408 32.986 144.74 32.014L142.94 30.682ZM132.23 38.62C132.752 38.278 133.598 38.008 138.746 36.478C138.62 36.01 138.44 35.146 138.386 34.552L132.896 36.064L131.996 36.766L132.23 38.62ZM132.23 38.62C132.23 37.918 134.48 36.748 134.48 36.748V32.068H132.23V35.254C132.23 36.046 131.726 36.478 131.33 36.694C131.672 37.144 132.086 38.098 132.23 38.62Z" fill="#44444F"/>
</g>
<defs>
<clipPath id="clip0_76242_5585">
<rect width="130" height="26" fill="white" transform="translate(16 16)"/>
</clipPath>
</defs>
</svg>
