<svg width="56" height="56" viewBox="0 0 56 56" fill="none" xmlns="http://www.w3.org/2000/svg">
<circle cx="28" cy="28" r="27" stroke="#FFC542" stroke-width="2"/>
<g clip-path="url(#clip0_1_51)">
<path d="M26.5 34.8438C26.5 35.2416 26.658 35.6231 26.9393 35.9044C27.2206 36.1857 27.6022 36.3438 28 36.3438C28.3978 36.3438 28.7794 36.1857 29.0607 35.9044C29.342 35.6231 29.5 35.2416 29.5 34.8438C29.5 34.4459 29.342 34.0644 29.0607 33.7831C28.7794 33.5018 28.3978 33.3438 28 33.3438C27.6022 33.3438 27.2206 33.5018 26.9393 33.7831C26.658 34.0644 26.5 34.4459 26.5 34.8438ZM27.25 30.9062H28.75C28.8531 30.9062 28.9375 30.8219 28.9375 30.7188V19.8438C28.9375 19.7406 28.8531 19.6562 28.75 19.6562H27.25C27.1469 19.6562 27.0625 19.7406 27.0625 19.8438V30.7188C27.0625 30.8219 27.1469 30.9062 27.25 30.9062Z" fill="#FFC542"/>
</g>
<defs>
<clipPath id="clip0_1_51">
<rect width="24" height="24" fill="white" transform="translate(16 16)"/>
</clipPath>
</defs>
</svg>
