<svg width="56" height="56" viewBox="0 0 56 56" fill="none" xmlns="http://www.w3.org/2000/svg">
<circle cx="28" cy="28" r="27" stroke="#FC5A5A" stroke-width="2"/>
<g clip-path="url(#clip0_1_44)">
<path fill-rule="evenodd" clip-rule="evenodd" d="M34.8512 22.4512C34.9367 22.3658 35.0046 22.2644 35.0509 22.1527C35.0972 22.0411 35.1211 21.9214 35.1212 21.8006C35.1212 21.6797 35.0975 21.56 35.0513 21.4483C35.0051 21.3366 34.9374 21.2351 34.852 21.1496C34.7666 21.0641 34.6652 20.9962 34.5535 20.9499C34.4419 20.9036 34.3222 20.8797 34.2014 20.8796C34.0805 20.8796 33.9608 20.9033 33.8491 20.9495C33.7374 20.9957 33.6359 21.0634 33.5504 21.1488L28 26.6992L22.4512 21.1488C22.2785 20.9761 22.0442 20.8791 21.8 20.8791C21.5558 20.8791 21.3215 20.9761 21.1488 21.1488C20.9761 21.3215 20.8791 21.5558 20.8791 21.8C20.8791 22.0442 20.9761 22.2785 21.1488 22.4512L26.6992 28L21.1488 33.5488C21.0633 33.6343 20.9954 33.7358 20.9492 33.8476C20.9029 33.9593 20.8791 34.0791 20.8791 34.2C20.8791 34.3209 20.9029 34.4407 20.9492 34.5524C20.9954 34.6642 21.0633 34.7657 21.1488 34.8512C21.3215 35.0239 21.5558 35.1209 21.8 35.1209C21.9209 35.1209 22.0407 35.0971 22.1524 35.0508C22.2642 35.0045 22.3657 34.9367 22.4512 34.8512L28 29.3008L33.5504 34.8512C33.7231 35.0237 33.9573 35.1205 34.2014 35.1204C34.4455 35.1202 34.6795 35.0231 34.852 34.8504C35.0245 34.6777 35.1213 34.4435 35.1212 34.1994C35.121 33.9553 35.0239 33.7213 34.8512 33.5488L29.3008 28L34.8512 22.4512Z" fill="#FC5A5A"/>
</g>
<defs>
<clipPath id="clip0_1_44">
<rect width="24" height="24" fill="white" transform="translate(16 16)"/>
</clipPath>
</defs>
</svg>
