<svg width="56" height="56" viewBox="0 0 56 56" fill="none" xmlns="http://www.w3.org/2000/svg">
<circle cx="28" cy="28" r="27" stroke="#50B5FF" stroke-width="2"/>
<g clip-path="url(#clip0_1_57)">
<path d="M26.5 21.25C26.5 21.6478 26.658 22.0294 26.9393 22.3107C27.2206 22.592 27.6022 22.75 28 22.75C28.3978 22.75 28.7794 22.592 29.0607 22.3107C29.342 22.0294 29.5 21.6478 29.5 21.25C29.5 20.8522 29.342 20.4706 29.0607 20.1893C28.7794 19.908 28.3978 19.75 28 19.75C27.6022 19.75 27.2206 19.908 26.9393 20.1893C26.658 20.4706 26.5 20.8522 26.5 21.25V21.25ZM28.75 25.1875H27.25C27.1469 25.1875 27.0625 25.2719 27.0625 25.375V36.25C27.0625 36.3531 27.1469 36.4375 27.25 36.4375H28.75C28.8531 36.4375 28.9375 36.3531 28.9375 36.25V25.375C28.9375 25.2719 28.8531 25.1875 28.75 25.1875Z" fill="#50B5FF"/>
</g>
<defs>
<clipPath id="clip0_1_57">
<rect width="24" height="24" fill="white" transform="translate(16 16)"/>
</clipPath>
</defs>
</svg>
