<svg width="16" height="16" viewBox="0 0 16 16" fill="none" xmlns="http://www.w3.org/2000/svg">
<path d="M9.41412 8.00012L15.2071 2.20712C15.5971 1.81712 15.5971 1.18412 15.2071 0.793119C14.8171 0.402119 14.1841 0.403119 13.7931 0.793119L8.00012 6.58612L2.20712 0.793119C1.81712 0.403119 1.18412 0.403119 0.793119 0.793119C0.402119 1.18312 0.403119 1.81612 0.793119 2.20712L6.58612 8.00012L0.793119 13.7931C0.403119 14.1831 0.403119 14.8161 0.793119 15.2071C0.988119 15.4021 1.24312 15.5001 1.50012 15.5001C1.75712 15.5001 2.01212 15.4021 2.20712 15.2071L8.00012 9.41412L13.7931 15.2071C13.9881 15.4021 14.2431 15.5001 14.5001 15.5001C14.7571 15.5001 15.0121 15.4021 15.2071 15.2071C15.5971 14.8171 15.5971 14.1841 15.2071 13.7931L9.41412 8.00012Z" fill="white"/>
</svg>
