<svg id="圖層_1" data-name="圖層 1" xmlns="http://www.w3.org/2000/svg" viewBox="0 0 40 40"><defs><style>.cls-1{fill:#f60;}</style></defs><title>Icon</title><path class="cls-1" d="M25.7,18.47S18.23,30.58,12.11,30.58c-10.71,0-.73-23.06,7.08-23.06C24.64,7.51,25.7,18.47,25.7,18.47Z" transform="translate(0)"/><path class="cls-1" d="M34.57,33.7A20,20,0,0,1,2.76,30.14c1.77,2.41,4.77,4,9,4C22.32,34.15,28.29,26,28.29,26s.52,6.46,6.27,7.72Z" transform="translate(0)"/><path class="cls-1" d="M37.72,10.75a20,20,0,0,1-.48,19.4,6,6,0,0,1-2.8-3.53l-2.28-6.84Z" transform="translate(0)"/><path class="cls-1" d="M20,0A20,20,0,0,1,33.54,5.3l-3.79,6.11c-1.37-3.57-4.16-7.14-9.58-7.14C9.08,4.27.85,16.39.85,24a11.32,11.32,0,0,0,.37,2.91A20,20,0,0,1,20,0Z" transform="translate(0)"/></svg>