<svg width="24" height="24" viewBox="0 0 24 24" fill="none" xmlns="http://www.w3.org/2000/svg">
<path d="M13.4141 12.0001L19.2071 6.20712C19.5971 5.81712 19.5971 5.18412 19.2071 4.79312C18.8171 4.40212 18.1841 4.40312 17.7931 4.79312L12.0001 10.5861L6.20712 4.79312C5.81712 4.40312 5.18412 4.40312 4.79312 4.79312C4.40212 5.18312 4.40312 5.81612 4.79312 6.20712L10.5861 12.0001L4.79312 17.7931C4.40312 18.1831 4.40312 18.8161 4.79312 19.2071C4.98812 19.4021 5.24312 19.5001 5.50012 19.5001C5.75712 19.5001 6.01212 19.4021 6.20712 19.2071L12.0001 13.4141L17.7931 19.2071C17.9881 19.4021 18.2431 19.5001 18.5001 19.5001C18.7571 19.5001 19.0121 19.4021 19.2071 19.2071C19.5971 18.8171 19.5971 18.1841 19.2071 17.7931L13.4141 12.0001Z" fill="white"/>
</svg>
