<svg width="26" height="25" viewBox="0 0 26 25" fill="none" xmlns="http://www.w3.org/2000/svg">
<path d="M13 24.0473H12.9825C9.75375 23.9873 0.4375 15.5698 0.4375 7.59728C0.4375 3.76728 3.59375 0.404785 7.19125 0.404785C10.0537 0.404785 11.9787 2.37979 12.9987 3.81729C14.0162 2.38229 15.9412 0.404785 18.805 0.404785C22.405 0.404785 25.56 3.76729 25.56 7.59854C25.56 15.5685 16.2425 23.986 13.0137 24.0448H13V24.0473ZM7.1925 2.28104C4.5925 2.28104 2.31375 4.76603 2.31375 7.59978C2.31375 14.7748 11.1062 22.0948 13.0012 22.1723C14.8987 22.0948 23.6887 14.776 23.6887 7.59978C23.6887 4.76603 21.41 2.28104 18.81 2.28104C15.65 2.28104 13.885 5.95104 13.87 5.98729C13.5825 6.68979 12.425 6.68979 12.1362 5.98729C12.1187 5.94979 10.355 2.28104 7.19375 2.28104H7.1925Z" fill="#657786"/>
</svg>
