<svg width="24" height="24" viewBox="0 0 24 24" fill="none" xmlns="http://www.w3.org/2000/svg">
<path d="M12.0002 21.6381H11.9862C9.40319 21.5901 1.9502 14.8561 1.9502 8.47812C1.9502 5.41412 4.47519 2.72412 7.35319 2.72412C9.64319 2.72412 11.1832 4.30412 11.9992 5.45412C12.8132 4.30612 14.3532 2.72412 16.6442 2.72412C19.5242 2.72412 22.0482 5.41412 22.0482 8.47912C22.0482 14.8551 14.5942 21.5891 12.0112 21.6361H12.0002V21.6381ZM7.35419 4.22512C5.2742 4.22512 3.4512 6.21312 3.4512 8.48012C3.4512 14.2201 10.4852 20.0761 12.0012 20.1381C13.5192 20.0761 20.5512 14.2211 20.5512 8.48012C20.5512 6.21312 18.7282 4.22512 16.6482 4.22512C14.1202 4.22512 12.7082 7.16112 12.6962 7.19012C12.4662 7.75212 11.5402 7.75212 11.3092 7.19012C11.2952 7.16012 9.88419 4.22512 7.35519 4.22512H7.35419Z" fill="#6C757D"/>
</svg>
