<svg width="17" height="14" viewBox="0 0 17 14" fill="none" xmlns="http://www.w3.org/2000/svg">
<path d="M15.9995 5.99988H3.4135L7.7065 1.70687C8.0965 1.31687 8.0965 0.683875 7.7065 0.292875C7.3165 -0.0981249 6.6835 -0.0971249 6.2925 0.292875L0.2925 6.29288C-0.0975 6.68288 -0.0975 7.31588 0.2925 7.70687L6.2925 13.7069C6.4875 13.9019 6.7425 13.9999 6.9995 13.9999C7.2565 13.9999 7.5115 13.9019 7.7065 13.7069C8.0965 13.3169 8.0965 12.6839 7.7065 12.2929L3.4135 7.99988H15.9995C16.5525 7.99988 16.9995 7.55288 16.9995 6.99988C16.9995 6.44688 16.5525 5.99988 15.9995 5.99988Z" fill="black"/>
</svg>
