<svg width="16" height="16" viewBox="0 0 16 16" fill="none" xmlns="http://www.w3.org/2000/svg">
<path d="M9.36401 1.49446L6.59867 1.48779H6.59734C3.68134 1.48779 1.39734 3.77246 1.39734 6.68913C1.39734 9.42113 3.52134 11.4931 6.37401 11.6025V14.1545C6.37401 14.2265 6.40334 14.3451 6.45401 14.4231C6.54867 14.5731 6.71001 14.6545 6.87534 14.6545C6.96734 14.6545 7.06001 14.6291 7.14334 14.5758C7.31934 14.4638 11.4587 11.8158 12.5353 10.9051C13.8033 9.83179 14.562 8.25846 14.564 6.69713V6.68579C14.56 3.77446 12.2773 1.49446 9.36401 1.49379V1.49446ZM11.8887 10.1425C11.1327 10.7825 8.64734 12.4125 7.37401 13.2378V11.1131C7.37401 10.8371 7.15067 10.6131 6.87401 10.6131H6.61001C4.17001 10.6131 2.39801 8.96246 2.39801 6.68913C2.39801 4.33313 4.24334 2.48779 6.59801 2.48779L9.36267 2.49446H9.36401C11.7187 2.49446 13.564 4.33846 13.5653 6.69179C13.5633 7.96513 12.9373 9.25446 11.8893 10.1425H11.8887Z" fill="#6C757D"/>
</svg>
