<svg width="24" height="24" viewBox="0 0 24 24" fill="none" xmlns="http://www.w3.org/2000/svg">
<path fill-rule="evenodd" clip-rule="evenodd" d="M12.36 22.375H11.638C10.455 22.375 9.48399 21.487 9.37599 20.311L9.36199 20.164C9.33699 19.877 9.15499 19.631 8.88999 19.52C8.60399 19.4 8.30799 19.455 8.09199 19.635L7.97599 19.732C7.10799 20.457 5.72299 20.395 4.91599 19.592L4.40599 19.082C3.56999 18.242 3.50999 16.928 4.26599 16.022L4.36399 15.904C4.54999 15.682 4.59399 15.381 4.48599 15.117C4.37599 14.845 4.12799 14.663 3.83999 14.637L3.68999 14.623C2.50999 14.516 1.62299 13.543 1.62299 12.361V11.639C1.62299 10.456 2.51099 9.485 3.68699 9.377L3.84299 9.363C4.12799 9.338 4.37299 9.156 4.48499 8.89C4.59499 8.62 4.54999 8.317 4.36499 8.095L4.27099 7.979C3.51399 7.071 3.57299 5.756 4.40799 4.919L4.91999 4.407C5.72399 3.603 7.10799 3.542 7.97999 4.267L8.09599 4.365C8.31399 4.549 8.62399 4.595 8.88599 4.487C9.15599 4.375 9.33799 4.129 9.36299 3.844L9.37699 3.691C9.48399 2.511 10.457 1.625 11.639 1.625H12.361C13.544 1.625 14.515 2.513 14.623 3.689L14.637 3.845C14.662 4.13 14.843 4.375 15.109 4.485C15.386 4.602 15.689 4.547 15.903 4.368L16.023 4.266C16.89 3.543 18.277 3.604 19.083 4.406L19.593 4.918C20.429 5.756 20.489 7.071 19.733 7.978L19.633 8.096C19.445 8.316 19.399 8.618 19.51 8.884C19.622 9.154 19.87 9.334 20.156 9.362L20.308 9.376C21.488 9.483 22.375 10.456 22.375 11.638V12.361C22.375 13.544 21.487 14.515 20.311 14.623L20.156 14.637C19.872 14.661 19.626 14.842 19.516 15.107C19.403 15.379 19.449 15.681 19.633 15.902L19.733 16.022C20.489 16.927 20.429 18.242 19.593 19.082L19.083 19.592C18.276 20.396 16.893 20.456 16.023 19.732L15.908 19.636C15.691 19.453 15.378 19.406 15.118 19.514C14.845 19.628 14.663 19.874 14.638 20.16L14.624 20.31C14.517 21.483 13.544 22.37 12.362 22.37L12.36 22.375ZM8.2099 12C8.2099 9.90996 9.9099 8.20996 11.9999 8.20996C14.0899 8.20996 15.7899 9.90996 15.7899 12C15.7899 14.09 14.0899 15.79 11.9999 15.79C9.9099 15.79 8.2099 14.09 8.2099 12ZM9.7099 12C9.7099 13.264 10.7379 14.29 11.9999 14.29C13.2619 14.29 14.2899 13.264 14.2899 12C14.2899 10.736 13.2599 9.70996 11.9999 9.70996C10.7399 9.70996 9.7099 10.736 9.7099 12Z" fill="#FF6600"/>
</svg>
