<svg width="178" height="46" viewBox="0 0 178 46" fill="none" xmlns="http://www.w3.org/2000/svg">
<rect width="178" height="46" rx="23" fill="#FF6600"/>
<path d="M69.62 25.86L70.02 27.32C71.72 26.78 73.98 26.04 76.1 25.34L75.9 23.96C73.58 24.7 71.2 25.44 69.62 25.86ZM69.8 19.2V20.6H76.08V19.2H69.8ZM72.36 15.22V31.76C72.36 32.06 72.26 32.12 72.02 32.12C71.78 32.14 71 32.14 70.14 32.12C70.34 32.54 70.54 33.18 70.58 33.56C71.86 33.58 72.64 33.52 73.12 33.28C73.64 33.04 73.82 32.62 73.82 31.76V15.22H72.36ZM78.1 22.78V24.12H87.36V22.78H78.1ZM78.12 26.78V28.12H87.34V26.78H78.12ZM78.16 30.84V32.22H88.08V30.84H78.16ZM79.04 15.32C78.12 18.28 76.6 21.2 74.86 23.06C75.18 23.32 75.74 23.86 75.98 24.12C77.76 22.06 79.4 18.9 80.46 15.7L79.04 15.32ZM79.06 18.78H78.76L77.6 19.98V33.6H79.06V20.16H87.68V18.78H79.06ZM82.44 19.52V31.58H83.86V19.52H82.44ZM81.82 15.88C82.38 16.8 83 18.06 83.24 18.88L84.6 18.28C84.34 17.48 83.72 16.28 83.12 15.38L81.82 15.88ZM103.48 19.42C101.2 26.24 96.84 30.1 89.72 32.16C90.02 32.5 90.48 33.2 90.66 33.56C97.92 31.24 102.48 27.14 105.04 19.86L103.48 19.42ZM94.4 19.5L93 19.94C95.54 26.7 100.12 31.5 107.3 33.48C107.54 33.06 107.98 32.42 108.34 32.08C101.34 30.34 96.66 25.7 94.4 19.5ZM90 18.74V20.2H108.08V18.74H90ZM97.46 15.54C98.06 16.54 98.68 17.86 98.94 18.68L100.58 18.16C100.3 17.32 99.62 16.02 99.02 15.08L97.46 15.54Z" fill="white"/>
</svg>
