<svg width="56" height="136" viewBox="0 0 56 136" fill="none" xmlns="http://www.w3.org/2000/svg">
<circle cx="28" cy="28" r="27" stroke="#82C43C" stroke-width="2"/>
<path d="M20 28L26 34L36 22" stroke="#82C43C" stroke-width="2" stroke-linecap="round" stroke-linejoin="round"/>
<circle cx="28" cy="108" r="27" stroke="#FC5A5A" stroke-width="2"/>
<path fill-rule="evenodd" clip-rule="evenodd" d="M34.8512 102.451C34.9367 102.366 35.0046 102.264 35.0509 102.153C35.0972 102.041 35.1211 101.921 35.1212 101.801C35.1212 101.68 35.0975 101.56 35.0513 101.448C35.0051 101.337 34.9374 101.235 34.852 101.15C34.7666 101.064 34.6652 100.996 34.5535 100.95C34.4419 100.904 34.3222 100.88 34.2014 100.88C34.0805 100.88 33.9608 100.903 33.8491 100.949C33.7374 100.996 33.6359 101.063 33.5504 101.149L28 106.699L22.4512 101.149C22.2785 100.976 22.0442 100.879 21.8 100.879C21.5557 100.879 21.3215 100.976 21.1488 101.149C20.9761 101.322 20.8791 101.556 20.8791 101.8C20.8791 102.044 20.9761 102.278 21.1488 102.451L26.6992 108L21.1488 113.549C21.0633 113.634 20.9954 113.736 20.9492 113.848C20.9029 113.959 20.8791 114.079 20.8791 114.2C20.8791 114.321 20.9029 114.441 20.9492 114.552C20.9954 114.664 21.0633 114.766 21.1488 114.851C21.3215 115.024 21.5557 115.121 21.8 115.121C21.9209 115.121 22.0407 115.097 22.1524 115.051C22.2642 115.005 22.3657 114.937 22.4512 114.851L28 109.301L33.5504 114.851C33.7231 115.024 33.9573 115.121 34.2014 115.12C34.4455 115.12 34.6795 115.023 34.852 114.85C35.0245 114.678 35.1213 114.444 35.1212 114.199C35.121 113.955 35.0239 113.721 34.8512 113.549L29.3008 108L34.8512 102.451Z" fill="#FC5A5A"/>
</svg>
