<svg width="344" height="183" viewBox="0 0 344 183" fill="none" xmlns="http://www.w3.org/2000/svg">
<path d="M42.58 27.3499L32.475 21.8969C32.178 21.7369 31.821 21.7369 31.525 21.8969L21.425 27.3499C20.939 27.6139 20.758 28.2199 21.02 28.7059C21.2 29.0409 21.545 29.2309 21.9 29.2309C22.06 29.2309 22.224 29.1929 22.375 29.1109L23.109 28.7149L24.699 39.9649C24.915 41.1789 26.009 42.0269 27.359 42.0269H36.641C37.991 42.0269 39.085 41.1789 39.303 39.9389L40.891 28.7139L41.628 29.1119C42.113 29.3749 42.72 29.1939 42.982 28.7079C43.245 28.2219 43.062 27.6149 42.578 27.3529L42.58 27.3499ZM32 35.4349C30.205 35.4349 28.75 33.9799 28.75 32.1849C28.75 30.3899 30.205 28.9349 32 28.9349C33.795 28.9349 35.25 30.3899 35.25 32.1849C35.25 33.9799 33.795 35.4349 32 35.4349Z" fill="#171725"/>
<path d="M42.46 67.5699L32.357 62.1149C32.134 61.9949 31.867 61.9949 31.644 62.1149L21.543 67.5699C21.179 67.7669 21.043 68.2219 21.24 68.5869C21.375 68.8369 21.634 68.9799 21.9 68.9799C22.02 68.9799 22.143 68.9499 22.256 68.8899L23.071 68.4499L24.7 79.9629C24.914 81.1779 26.008 82.0249 27.358 82.0249H36.64C37.992 82.0249 39.085 81.1769 39.303 79.9379L40.929 68.4479L41.747 68.8899C42.111 69.0829 42.567 68.9499 42.764 68.5859C42.96 68.2229 42.824 67.7679 42.46 67.5699ZM37.822 79.7029C37.715 80.3089 37.119 80.5249 36.642 80.5249H27.36C26.88 80.5249 26.285 80.3089 26.182 79.7269L24.48 67.6899L32 63.6279L39.522 67.6879L37.822 79.7029Z" fill="#171725"/>
<path d="M28.22 72.1838C28.22 74.2678 29.915 75.9638 32 75.9638C34.085 75.9638 35.78 74.2678 35.78 72.1838C35.78 70.0998 34.085 68.4038 32 68.4038C29.915 68.4038 28.22 70.0998 28.22 72.1838ZM34.28 72.1838C34.28 73.4418 33.258 74.4638 32 74.4638C30.742 74.4638 29.72 73.4418 29.72 72.1838C29.72 70.9258 30.742 69.9038 32 69.9038C33.258 69.9038 34.28 70.9258 34.28 72.1838Z" fill="#171725"/>
<path d="M71.9999 71.8158C73.3549 71.8158 74.8719 71.6658 75.8399 70.5598C76.6539 69.6298 76.9179 68.1918 76.6459 66.1678C76.2659 63.3428 74.5289 61.6558 71.9999 61.6558C69.4709 61.6558 67.7339 63.3428 67.3539 66.1698C67.0819 68.1918 67.3459 69.6298 68.1599 70.5598C69.1279 71.6668 70.6449 71.8158 71.9999 71.8158ZM68.8399 66.3678C69.0019 65.1678 69.6269 63.1558 71.9999 63.1558C74.3729 63.1558 74.9979 65.1688 75.1599 66.3678C75.3669 67.9178 75.2169 68.9948 74.7099 69.5728C74.2549 70.0928 73.4439 70.3158 71.9999 70.3158C70.5559 70.3158 69.7449 70.0928 69.2899 69.5728C68.7829 68.9948 68.6329 67.9168 68.8399 66.3678ZM80.2799 79.2358C79.4029 75.7098 75.9979 73.2458 71.9999 73.2458C68.0019 73.2458 64.5969 75.7098 63.7199 79.2358C63.5479 79.9278 63.6919 80.6358 64.1149 81.1758C64.5229 81.6958 65.1549 81.9958 65.8479 81.9958H78.1519C78.8449 81.9958 79.4769 81.6958 79.8849 81.1758C80.3089 80.6358 80.4519 79.9288 80.2789 79.2358H80.2799ZM78.7039 80.2518C78.5779 80.4118 78.3879 80.4978 78.1519 80.4978H65.8479C65.6129 80.4978 65.4219 80.4128 65.2959 80.2518C65.1589 80.0778 65.1159 79.8398 65.1759 79.5978C65.8859 76.7428 68.6929 74.7478 71.9999 74.7478C75.3069 74.7478 78.1139 76.7418 78.8239 79.5978C78.8839 79.8398 78.8409 80.0778 78.7039 80.2518Z" fill="#171725"/>
<path d="M72.225 32.1649C70.869 32.1649 69.353 32.0149 68.385 30.9089C67.571 29.9789 67.308 28.5409 67.58 26.5169C67.96 23.6909 69.696 22.0039 72.226 22.0039C74.756 22.0039 76.493 23.6909 76.872 26.5169C77.144 28.5409 76.88 29.9769 76.066 30.9089C75.096 32.0149 73.581 32.1639 72.226 32.1639L72.225 32.1649ZM78.074 42.0149H66.376C65.713 42.0149 65.126 41.7349 64.726 41.2289C64.304 40.6949 64.15 39.9589 64.316 39.2609C65.15 35.7309 68.402 33.2639 72.224 33.2639C76.046 33.2639 79.298 35.7299 80.134 39.2609C80.298 39.9589 80.144 40.6949 79.722 41.2279C79.322 41.7329 78.737 42.0129 78.074 42.0129V42.0149Z" fill="black"/>
<path d="M112 68.21C109.91 68.21 108.21 69.91 108.21 72C108.21 74.09 109.91 75.79 112 75.79C114.09 75.79 115.79 74.09 115.79 72C115.79 69.91 114.09 68.21 112 68.21ZM112 74.29C110.738 74.29 109.71 73.264 109.71 72C109.71 70.736 110.74 69.71 112 69.71C113.26 69.71 114.29 70.736 114.29 72C114.29 73.264 113.262 74.29 112 74.29Z" fill="black"/>
<path d="M112.36 82.375H111.638C110.455 82.375 109.484 81.487 109.376 80.311L109.362 80.164C109.337 79.877 109.155 79.631 108.89 79.52C108.604 79.4 108.308 79.455 108.092 79.635L107.976 79.732C107.108 80.457 105.723 80.395 104.916 79.592L104.406 79.082C103.57 78.242 103.51 76.928 104.266 76.022L104.364 75.904C104.55 75.682 104.594 75.381 104.486 75.117C104.376 74.845 104.128 74.663 103.84 74.637L103.69 74.623C102.51 74.516 101.623 73.543 101.623 72.361V71.639C101.623 70.456 102.511 69.485 103.687 69.377L103.843 69.363C104.128 69.338 104.373 69.156 104.485 68.89C104.595 68.62 104.55 68.317 104.365 68.095L104.271 67.979C103.514 67.071 103.573 65.756 104.408 64.919L104.92 64.407C105.724 63.603 107.108 63.542 107.98 64.267L108.096 64.365C108.314 64.549 108.624 64.595 108.886 64.487C109.156 64.375 109.338 64.129 109.363 63.844L109.377 63.691C109.484 62.511 110.457 61.625 111.639 61.625H112.361C113.544 61.625 114.515 62.513 114.623 63.689L114.637 63.845C114.662 64.13 114.843 64.375 115.109 64.485C115.386 64.602 115.689 64.547 115.903 64.368L116.023 64.266C116.89 63.543 118.277 63.604 119.083 64.406L119.593 64.918C120.429 65.756 120.489 67.071 119.733 67.978L119.633 68.096C119.445 68.316 119.399 68.618 119.51 68.884C119.622 69.154 119.87 69.334 120.156 69.362L120.308 69.376C121.488 69.483 122.375 70.456 122.375 71.638V72.361C122.375 73.544 121.487 74.515 120.311 74.623L120.156 74.637C119.872 74.661 119.626 74.842 119.516 75.107C119.403 75.379 119.449 75.681 119.633 75.902L119.733 76.022C120.489 76.927 120.429 78.242 119.593 79.082L119.083 79.592C118.276 80.396 116.893 80.456 116.023 79.732L115.908 79.636C115.691 79.453 115.378 79.406 115.118 79.514C114.845 79.628 114.663 79.874 114.638 80.16L114.624 80.31C114.517 81.483 113.544 82.37 112.362 82.37L112.36 82.375ZM108.587 77.955C108.887 77.955 109.18 78.015 109.457 78.13C110.247 78.458 110.781 79.184 110.857 80.026L110.871 80.173C110.908 80.573 111.238 80.873 111.641 80.873H112.363C112.763 80.873 113.093 80.573 113.131 80.173L113.145 80.025C113.221 79.183 113.755 78.458 114.537 78.133C115.33 77.803 116.233 77.951 116.87 78.483L116.983 78.577C117.161 78.725 117.349 78.757 117.476 78.757C117.682 78.757 117.876 78.677 118.022 78.53L118.532 78.02C118.816 77.736 118.837 77.29 118.58 76.982L118.48 76.862C117.938 76.212 117.803 75.322 118.128 74.539C118.454 73.749 119.18 73.219 120.022 73.142L120.177 73.128C120.574 73.091 120.877 72.761 120.877 72.358V71.636C120.877 71.236 120.574 70.906 120.175 70.868L120.023 70.854C119.177 70.776 118.453 70.244 118.128 69.461C117.802 68.673 117.938 67.783 118.481 67.134L118.581 67.016C118.838 66.706 118.817 66.26 118.533 65.976L118.023 65.466C117.877 65.319 117.683 65.239 117.477 65.239C117.35 65.239 117.162 65.271 116.985 65.419L116.865 65.519C116.231 66.047 115.315 66.189 114.543 65.873C113.755 65.546 113.223 64.821 113.146 63.977L113.132 63.822C113.097 63.425 112.767 63.122 112.365 63.122H111.642C111.242 63.122 110.912 63.425 110.874 63.824L110.86 63.976C110.784 64.819 110.252 65.544 109.47 65.869C108.683 66.195 107.777 66.052 107.14 65.519L107.022 65.423C106.842 65.273 106.654 65.243 106.527 65.243C106.321 65.243 106.127 65.323 105.981 65.469L105.469 65.979C105.187 66.263 105.166 66.709 105.423 67.017L105.523 67.135C106.063 67.788 106.2 68.679 105.875 69.46C105.548 70.248 104.823 70.78 103.98 70.857L103.824 70.871C103.427 70.908 103.124 71.238 103.124 71.641V72.363C103.124 72.763 103.427 73.093 103.826 73.131L103.976 73.145C104.824 73.223 105.549 73.757 105.873 74.541C106.198 75.327 106.063 76.216 105.52 76.866L105.424 76.981C105.164 77.291 105.186 77.737 105.47 78.021L105.98 78.531C106.126 78.678 106.32 78.758 106.526 78.758C106.653 78.758 106.841 78.728 107.018 78.578L107.134 78.482C107.54 78.146 108.057 77.958 108.587 77.958V77.955Z" fill="black"/>
<path fill-rule="evenodd" clip-rule="evenodd" d="M112.36 42.375H111.638C110.455 42.375 109.484 41.487 109.376 40.311L109.362 40.164C109.337 39.877 109.155 39.631 108.89 39.52C108.604 39.4 108.308 39.455 108.092 39.635L107.976 39.732C107.108 40.457 105.723 40.395 104.916 39.592L104.406 39.082C103.57 38.242 103.51 36.928 104.266 36.022L104.364 35.904C104.55 35.682 104.594 35.381 104.486 35.117C104.376 34.845 104.128 34.663 103.84 34.637L103.69 34.623C102.51 34.516 101.623 33.543 101.623 32.361V31.639C101.623 30.456 102.511 29.485 103.687 29.377L103.843 29.363C104.128 29.338 104.373 29.156 104.485 28.89C104.595 28.62 104.55 28.317 104.365 28.095L104.271 27.979C103.514 27.071 103.573 25.756 104.408 24.919L104.92 24.407C105.724 23.603 107.108 23.542 107.98 24.267L108.096 24.365C108.314 24.549 108.624 24.595 108.886 24.487C109.156 24.375 109.338 24.129 109.363 23.844L109.377 23.691C109.484 22.511 110.457 21.625 111.639 21.625H112.361C113.544 21.625 114.515 22.513 114.623 23.689L114.637 23.845C114.662 24.13 114.843 24.375 115.109 24.485C115.386 24.602 115.689 24.547 115.903 24.368L116.023 24.266C116.89 23.543 118.277 23.604 119.083 24.406L119.593 24.918C120.429 25.756 120.489 27.071 119.733 27.978L119.633 28.096C119.445 28.316 119.399 28.618 119.51 28.884C119.622 29.154 119.87 29.334 120.156 29.362L120.308 29.376C121.488 29.483 122.375 30.456 122.375 31.638V32.361C122.375 33.544 121.487 34.515 120.311 34.623L120.156 34.637C119.872 34.661 119.626 34.842 119.516 35.107C119.403 35.379 119.449 35.681 119.633 35.902L119.733 36.022C120.489 36.927 120.429 38.242 119.593 39.082L119.083 39.592C118.276 40.396 116.893 40.456 116.023 39.732L115.908 39.636C115.691 39.453 115.378 39.406 115.118 39.514C114.845 39.628 114.663 39.874 114.638 40.16L114.624 40.31C114.517 41.483 113.544 42.37 112.362 42.37L112.36 42.375ZM108.21 32C108.21 29.91 109.91 28.21 112 28.21C114.09 28.21 115.79 29.91 115.79 32C115.79 34.09 114.09 35.79 112 35.79C109.91 35.79 108.21 34.09 108.21 32ZM109.71 32C109.71 33.264 110.738 34.29 112 34.29C113.262 34.29 114.29 33.264 114.29 32C114.29 30.736 113.26 29.71 112 29.71C110.74 29.71 109.71 30.736 109.71 32Z" fill="#171725"/>
<path d="M226 63C225.204 63 224.441 63.3161 223.879 63.8787C223.316 64.4413 223 65.2044 223 66V78C223 78.7956 223.316 79.5587 223.879 80.1213C224.441 80.6839 225.204 81 226 81H231C231.265 81 231.52 80.8946 231.707 80.7071C231.895 80.5196 232 80.2652 232 80C232 79.7348 231.895 79.4804 231.707 79.2929C231.52 79.1054 231.265 79 231 79H226C225.735 79 225.48 78.8946 225.293 78.7071C225.105 78.5196 225 78.2652 225 78V66C225 65.7348 225.105 65.4804 225.293 65.2929C225.48 65.1054 225.735 65 226 65H231C231.265 65 231.52 64.8946 231.707 64.7071C231.895 64.5196 232 64.2652 232 64C232 63.7348 231.895 63.4804 231.707 63.2929C231.52 63.1054 231.265 63 231 63H226Z" fill="#171725"/>
<path d="M235.293 67.2928C235.481 67.1053 235.735 67 236 67C236.265 67 236.519 67.1053 236.707 67.2928L240.707 71.2928C240.894 71.4803 241 71.7346 241 71.9998C241 72.265 240.894 72.5193 240.707 72.7068L236.707 76.7068C236.518 76.8889 236.266 76.9897 236.004 76.9875C235.741 76.9852 235.491 76.88 235.305 76.6946C235.12 76.5092 235.015 76.2584 235.012 75.9962C235.01 75.734 235.111 75.4814 235.293 75.2928L237.586 72.9998H230C229.735 72.9998 229.48 72.8944 229.293 72.7069C229.105 72.5194 229 72.265 229 71.9998C229 71.7346 229.105 71.4802 229.293 71.2927C229.48 71.1051 229.735 70.9998 230 70.9998H237.586L235.293 68.7068C235.106 68.5193 235 68.265 235 67.9998C235 67.7346 235.106 67.4803 235.293 67.2928Z" fill="#171725"/>
<path d="M319.708 82H304.292C303.028 82 302 80.972 302 79.708V67.375C302 66.11 303.028 65.083 304.292 65.083H306.438C307.633 63.17 309.722 62 312 62C314.277 62 316.367 63.17 317.562 65.083H319.708C320.972 65.083 322 66.11 322 67.375V79.708C322 80.972 320.972 82 319.708 82ZM304.292 66.583C303.855 66.583 303.5 66.938 303.5 67.375V79.708C303.5 80.145 303.855 80.5 304.292 80.5H319.708C320.145 80.5 320.5 80.145 320.5 79.708V67.375C320.5 66.938 320.145 66.583 319.708 66.583H317.258C316.941 66.633 316.626 66.488 316.476 66.201C315.596 64.536 313.882 63.501 312 63.501C310.117 63.501 308.402 64.536 307.524 66.203C307.364 66.505 307.022 66.663 306.691 66.583H304.293H304.292Z" fill="#171725"/>
<path d="M312 68.167C309.32 68.167 307.14 70.347 307.14 73.027C307.14 75.707 309.32 77.887 312 77.887C314.68 77.887 316.86 75.707 316.86 73.027C316.86 70.347 314.68 68.167 312 68.167ZM314 73.75H312.75V75C312.75 75.414 312.414 75.75 312 75.75C311.586 75.75 311.25 75.414 311.25 75V73.75H310C309.586 73.75 309.25 73.414 309.25 73C309.25 72.586 309.586 72.25 310 72.25H311.25V71C311.25 70.586 311.586 70.25 312 70.25C312.414 70.25 312.75 70.586 312.75 71V72.25H314C314.414 72.25 314.75 72.586 314.75 73C314.75 73.414 314.414 73.75 314 73.75Z" fill="#171725"/>
<path d="M151.55 32.082C151.823 32.264 152.177 32.264 152.45 32.082L162 25.716V25.5C162 24.26 160.99 23.25 159.75 23.25H144.25C143.01 23.25 142 24.26 142 25.5V25.697L151.55 32.082Z" fill="black"/>
<path d="M153.26 33.2951C152.877 33.5501 152.44 33.6771 152 33.6771C151.56 33.6771 151.123 33.5501 150.74 33.2941L142 27.4521V39.1221C142 40.3621 143.01 41.3721 144.25 41.3721H159.75C160.99 41.3721 162 40.3621 162 39.1221V27.4701L153.26 33.2931V33.2951Z" fill="black"/>
<path d="M159.25 63.0181H144.75C143.233 63.0181 142 64.2521 142 65.7701V78.2651C142 79.7831 143.233 81.0181 144.75 81.0181H159.25C160.767 81.0181 162 79.7831 162 78.2651V65.7701C162 64.2521 160.767 63.0181 159.25 63.0181ZM144.75 64.5181H159.25C159.94 64.5181 160.5 65.0781 160.5 65.7681V66.4821L152.45 71.8491C152.177 72.0291 151.824 72.0311 151.55 71.8471L143.5 66.4821V65.7681C143.5 65.0781 144.06 64.5181 144.75 64.5181ZM159.25 79.5161H144.75C144.06 79.5161 143.5 78.9561 143.5 78.2661V68.2401L150.74 73.0701C151.123 73.3261 151.562 73.4541 152 73.4541C152.44 73.4541 152.877 73.3261 153.26 73.0711L160.5 68.2411V78.2631C160.5 78.9531 159.94 79.5131 159.25 79.5131V79.5161Z" fill="black"/>
<path d="M203.24 63.26H200.815V60.832C200.815 60.418 200.479 60.082 200.065 60.082C199.651 60.082 199.315 60.418 199.315 60.832V63.26H196.89C196.476 63.26 196.14 63.595 196.14 64.01C196.14 64.425 196.476 64.76 196.89 64.76H199.316V67.184C199.316 67.598 199.652 67.934 200.066 67.934C200.48 67.934 200.816 67.598 200.816 67.184V64.76H203.241C203.656 64.76 203.991 64.423 203.991 64.01C203.991 63.597 203.655 63.26 203.241 63.26H203.24ZM197.01 70.866C197.03 68.432 196.228 66.269 194.752 64.776C193.428 63.434 191.636 62.692 189.706 62.683H189.693C187.763 62.693 185.971 63.433 184.647 64.775C183.172 66.27 182.37 68.433 182.39 70.867C182.426 75 180.467 76.56 180.39 76.62C180.13 76.813 180.023 77.15 180.124 77.458C180.226 77.766 180.514 77.973 180.836 77.973H185.552C185.662 80.199 187.492 81.98 189.746 81.98C192 81.98 193.829 80.2 193.94 77.973H198.565C198.885 77.973 199.169 77.767 199.272 77.463C199.375 77.159 199.272 76.82 199.017 76.625C198.935 76.561 196.974 75 197.009 70.865L197.01 70.866ZM189.745 80.48C188.319 80.48 187.159 79.37 187.051 77.972H192.439C192.331 79.372 191.171 80.479 189.745 80.479V80.48ZM182.455 76.473C183.157 75.378 183.912 73.569 183.889 70.855C183.872 68.793 184.503 67.055 185.714 65.83C186.757 64.774 188.172 64.19 189.7 64.184C191.227 64.191 192.643 64.774 193.685 65.83C194.895 67.056 195.525 68.793 195.508 70.855C195.486 73.569 196.24 75.378 196.945 76.473H182.455Z" fill="black"/>
<g clip-path="url(#clip0_34223_1516)">
<path d="M203.61 20.1501C203.235 19.9661 202.788 20.1201 202.604 20.4901L199.74 26.2661L198.037 24.4561C197.754 24.1531 197.279 24.1401 196.977 24.4241C196.675 24.7081 196.661 25.1841 196.945 25.4841L199.388 28.0801C199.531 28.2301 199.728 28.3151 199.934 28.3151C199.97 28.3151 200.007 28.3121 200.044 28.3071C200.287 28.2711 200.496 28.1171 200.606 27.8971L203.948 21.1571C204.132 20.7851 203.98 20.3351 203.608 20.1511L203.61 20.1501ZM199.018 36.6251C198.935 36.5611 196.974 35.0001 197.008 30.8651C197.03 28.4321 196.228 26.2691 194.752 24.7751C193.428 23.4351 191.636 22.6921 189.706 22.6831H189.693C187.763 22.6931 185.971 23.4331 184.647 24.7751C183.172 26.2701 182.37 28.4331 182.39 30.8671C182.426 35.0001 180.467 36.5601 180.39 36.6201C180.13 36.8131 180.023 37.1501 180.124 37.4581C180.226 37.7661 180.514 37.9731 180.836 37.9731H184.916C185.004 40.5431 187.109 42.6131 189.701 42.6131C192.293 42.6131 194.399 40.5431 194.486 37.9731H198.568C198.888 37.9731 199.172 37.7671 199.275 37.4631C199.378 37.159 199.273 36.8201 199.019 36.6251H199.018ZM189.7 40.5131C188.266 40.5131 187.1 39.3861 187.016 37.9731H192.384C192.299 39.3861 191.134 40.5131 189.7 40.5131Z" fill="black"/>
</g>
<path d="M273.414 71.9999L279.207 66.2069C279.597 65.8169 279.597 65.1839 279.207 64.7929C278.817 64.4019 278.184 64.4029 277.793 64.7929L272 70.5859L266.207 64.7929C265.817 64.4029 265.184 64.4029 264.793 64.7929C264.402 65.1829 264.403 65.8159 264.793 66.2069L270.586 71.9999L264.793 77.7929C264.403 78.1829 264.403 78.8159 264.793 79.2069C264.988 79.4019 265.243 79.4999 265.5 79.4999C265.757 79.4999 266.012 79.4019 266.207 79.2069L272 73.4139L277.793 79.2069C277.988 79.4019 278.243 79.4999 278.5 79.4999C278.757 79.4999 279.012 79.4019 279.207 79.2069C279.597 78.8169 279.597 78.1839 279.207 77.7929L273.414 71.9999Z" fill="#171725"/>
<path d="M37.5576 142.803L32.3726 142.79H32.3701C26.9026 142.79 22.6201 147.074 22.6201 152.543C22.6201 157.665 26.6026 161.55 31.9514 161.755V166.54C31.9514 166.675 32.0064 166.898 32.1014 167.044C32.2789 167.325 32.5814 167.478 32.8914 167.478C33.0639 167.478 33.2376 167.43 33.3939 167.33C33.7239 167.12 41.4851 162.155 43.5039 160.448C45.8814 158.435 47.3039 155.485 47.3076 152.558V152.536C47.3001 147.078 43.0201 142.803 37.5576 142.801V142.803ZM42.2914 159.018C40.8739 160.218 36.2139 163.274 33.8264 164.821V160.838C33.8264 160.32 33.4076 159.9 32.8889 159.9H32.3939C27.8189 159.9 24.4964 156.805 24.4964 152.543C24.4964 148.125 27.9564 144.665 32.3714 144.665L37.5551 144.678H37.5576C41.9726 144.678 45.4326 148.135 45.4351 152.548C45.4314 154.935 44.2576 157.353 42.2926 159.018H42.2914Z" fill="#657786"/>
<path d="M81 167.047H80.9825C77.7537 166.987 68.4375 158.57 68.4375 150.597C68.4375 146.767 71.5937 143.405 75.1912 143.405C78.0537 143.405 79.9787 145.38 80.9987 146.817C82.0162 145.382 83.9412 143.405 86.805 143.405C90.405 143.405 93.56 146.767 93.56 150.599C93.56 158.569 84.2425 166.986 81.0137 167.045H81V167.047ZM75.1925 145.281C72.5925 145.281 70.3137 147.766 70.3137 150.6C70.3137 157.775 79.1062 165.095 81.0012 165.172C82.8987 165.095 91.6887 157.776 91.6887 150.6C91.6887 147.766 89.41 145.281 86.81 145.281C83.65 145.281 81.885 148.951 81.87 148.987C81.5825 149.69 80.425 149.69 80.1362 148.987C80.1187 148.95 78.355 145.281 75.1937 145.281H75.1925Z" fill="#657786"/>
<path d="M127 167.048H126.983C123.754 166.988 114.438 158.57 114.438 150.598C114.438 146.768 117.594 143.405 121.191 143.405C124.054 143.405 125.979 145.38 126.999 146.818C128.016 145.383 129.941 143.405 132.805 143.405C136.405 143.405 139.56 146.768 139.56 150.599C139.56 158.569 130.242 166.987 127.014 167.045H127V167.048Z" fill="black"/>
<path d="M40 111H27.414L31.707 106.707C32.097 106.317 32.097 105.684 31.707 105.293C31.317 104.902 30.684 104.903 30.293 105.293L24.293 111.293C23.903 111.683 23.903 112.316 24.293 112.707L30.293 118.707C30.488 118.902 30.743 119 31 119C31.257 119 31.512 118.902 31.707 118.707C32.097 118.317 32.097 117.684 31.707 117.293L27.414 113H40C40.553 113 41 112.553 41 112C41 111.447 40.553 111 40 111Z" fill="black"/>
<path d="M166.8 150.2H163.6V146.9C163.6 146.5 163.3 146.1 162.8 146.1C162.3 146.1 162.1 146.5 162.1 146.9V150.2H158.8C158.4 150.2 158 150.5 158 151C158 151.5 158.3 151.8 158.8 151.8H162.1V155.1C162.1 155.5 162.4 155.9 162.9 155.9C163.4 155.9 163.7 155.6 163.7 155.1V151.7H167C167.4 151.7 167.8 151.4 167.8 150.9C167.8 150.4 167.3 150.2 166.8 150.2ZM181.8 145.3V145.2H181.7C181.6 145.2 172.5 146.4 167.3 156.9C163.5 164.5 163.7 166.8 164 166.8C164.3 166.9 167.4 160.3 170.7 157.6C175.9 156.5 177.3 154 177.3 154C177.3 154 175.8 154.2 175.2 154.2C174.4 154.2 173.8 154 173.5 153.9C174.8 152.7 175.9 152.4 177 152.2C177.9 152 178.8 151.8 180 151C182.2 149.4 181.9 145.5 181.8 145.3Z" fill="black"/>
<path d="M72.0029 123.274C71.9199 123.274 71.8359 123.26 71.7549 123.232C71.4549 123.127 71.2529 122.842 71.2529 122.524V118.384C69.1729 118.212 67.2399 117.318 65.7469 115.824C62.2969 112.374 62.2969 106.762 65.7469 103.314C69.1969 99.8658 74.8089 99.8638 78.2589 103.314C81.3549 106.411 81.7089 111.384 79.0789 114.879L72.5889 122.991C72.4429 123.173 72.2259 123.273 72.0019 123.273L72.0029 123.274ZM72.0029 102.224C70.1209 102.224 68.2399 102.941 66.8079 104.374C63.9439 107.237 63.9439 111.898 66.8079 114.764C68.1959 116.151 70.0409 116.914 72.0029 116.914C72.4169 116.914 72.7529 117.251 72.7529 117.664V120.384L77.8949 113.959C80.0649 111.074 79.7709 106.945 77.1989 104.372C75.7649 102.942 73.8829 102.224 72.0019 102.224H72.0029Z" fill="black"/>
<path d="M75.55 108.7H68.45C68.037 108.7 67.7 108.363 67.7 107.95C67.7 107.537 68.037 107.2 68.45 107.2H75.55C75.963 107.2 76.3 107.535 76.3 107.95C76.3 108.365 75.963 108.7 75.55 108.7ZM72.5 111.938H68.45C68.037 111.938 67.7 111.602 67.7 111.188C67.7 110.774 68.037 110.438 68.45 110.438H72.5C72.914 110.438 73.25 110.774 73.25 111.188C73.25 111.602 72.914 111.938 72.5 111.938Z" fill="black"/>
<path d="M118.265 104.314C114.815 100.864 109.195 100.864 105.745 104.314C102.295 107.754 102.295 113.374 105.745 116.824C107.245 118.314 109.175 119.204 111.255 119.384V123.524C111.255 123.834 111.455 124.124 111.755 124.224C111.835 124.254 111.925 124.274 112.005 124.274C112.225 124.274 112.445 124.174 112.595 123.984L119.085 115.874C121.715 112.384 121.355 107.404 118.265 104.314ZM107.705 112.184C107.705 111.774 108.035 111.434 108.455 111.434H112.505C112.915 111.434 113.255 111.774 113.255 112.184C113.255 112.594 112.915 112.934 112.505 112.934H108.455C108.035 112.934 107.705 112.594 107.705 112.184ZM116.305 108.944C116.305 109.364 115.965 109.694 115.555 109.694H108.455C108.035 109.694 107.705 109.364 107.705 108.944C107.705 108.534 108.035 108.194 108.455 108.194H115.555C115.965 108.194 116.305 108.534 116.305 108.944Z" fill="black"/>
<rect x="0.5" y="0.5" width="343" height="182" rx="4.5" stroke="#7B61FF" stroke-dasharray="10 5"/>
<defs>
<clipPath id="clip0_34223_1516">
<rect width="24" height="24" fill="white" transform="translate(180 20)"/>
</clipPath>
</defs>
</svg>
