<svg width="357" height="225" viewBox="0 0 357 225" fill="none" xmlns="http://www.w3.org/2000/svg">
<rect width="357" height="225" fill="white"/>
<path d="M47.58 23.3499L37.475 17.8969C37.178 17.7369 36.821 17.7369 36.525 17.8969L26.425 23.3499C25.939 23.6139 25.758 24.2199 26.02 24.7059C26.2 25.0409 26.545 25.2309 26.9 25.2309C27.06 25.2309 27.224 25.1929 27.375 25.1109L28.109 24.7149L29.699 35.9649C29.915 37.1789 31.009 38.0269 32.359 38.0269H41.641C42.991 38.0269 44.085 37.1789 44.303 35.9389L45.891 24.7139L46.628 25.1119C47.113 25.3749 47.72 25.1939 47.982 24.7079C48.245 24.2219 48.062 23.6149 47.578 23.3529L47.58 23.3499ZM37 31.4349C35.205 31.4349 33.75 29.9799 33.75 28.1849C33.75 26.3899 35.205 24.9349 37 24.9349C38.795 24.9349 40.25 26.3899 40.25 28.1849C40.25 29.9799 38.795 31.4349 37 31.4349Z" fill="#FF6600"/>
<path d="M47.46 63.5699L37.357 58.1149C37.134 57.9949 36.867 57.9949 36.644 58.1149L26.543 63.5699C26.179 63.7669 26.043 64.2219 26.24 64.5869C26.375 64.8369 26.634 64.9799 26.9 64.9799C27.02 64.9799 27.143 64.9499 27.256 64.8899L28.071 64.4499L29.7 75.9629C29.914 77.1779 31.008 78.0249 32.358 78.0249H41.64C42.992 78.0249 44.085 77.1769 44.303 75.9379L45.929 64.4479L46.747 64.8899C47.111 65.0829 47.567 64.9499 47.764 64.5859C47.96 64.2229 47.824 63.7679 47.46 63.5699ZM42.822 75.7029C42.715 76.3089 42.119 76.5249 41.642 76.5249H32.36C31.88 76.5249 31.285 76.3089 31.182 75.7269L29.48 63.6899L37 59.6279L44.522 63.6879L42.822 75.7029Z" fill="#171725"/>
<path d="M33.22 68.1838C33.22 70.2678 34.915 71.9638 37 71.9638C39.085 71.9638 40.78 70.2678 40.78 68.1838C40.78 66.0998 39.085 64.4038 37 64.4038C34.915 64.4038 33.22 66.0998 33.22 68.1838ZM39.28 68.1838C39.28 69.4418 38.258 70.4638 37 70.4638C35.742 70.4638 34.72 69.4418 34.72 68.1838C34.72 66.9258 35.742 65.9038 37 65.9038C38.258 65.9038 39.28 66.9258 39.28 68.1838Z" fill="#171725"/>
<path d="M76.9999 67.8158C78.3549 67.8158 79.8719 67.6658 80.8399 66.5598C81.6539 65.6298 81.9179 64.1918 81.6459 62.1678C81.2659 59.3428 79.5289 57.6558 76.9999 57.6558C74.4709 57.6558 72.7339 59.3428 72.3539 62.1698C72.0819 64.1918 72.3459 65.6298 73.1599 66.5598C74.1279 67.6668 75.6449 67.8158 76.9999 67.8158ZM73.8399 62.3678C74.0019 61.1678 74.6269 59.1558 76.9999 59.1558C79.3729 59.1558 79.9979 61.1688 80.1599 62.3678C80.3669 63.9178 80.2169 64.9948 79.7099 65.5728C79.2549 66.0928 78.4439 66.3158 76.9999 66.3158C75.5559 66.3158 74.7449 66.0928 74.2899 65.5728C73.7829 64.9948 73.6329 63.9168 73.8399 62.3678ZM85.2799 75.2358C84.4029 71.7098 80.9979 69.2458 76.9999 69.2458C73.0019 69.2458 69.5969 71.7098 68.7199 75.2358C68.5479 75.9278 68.6919 76.6358 69.1149 77.1758C69.5229 77.6958 70.1549 77.9958 70.8479 77.9958H83.1519C83.8449 77.9958 84.4769 77.6958 84.8849 77.1758C85.3089 76.6358 85.4519 75.9288 85.2789 75.2358H85.2799ZM83.7039 76.2518C83.5779 76.4118 83.3879 76.4978 83.1519 76.4978H70.8479C70.6129 76.4978 70.4219 76.4128 70.2959 76.2518C70.1589 76.0778 70.1159 75.8398 70.1759 75.5978C70.8859 72.7428 73.6929 70.7478 76.9999 70.7478C80.3069 70.7478 83.1139 72.7418 83.8239 75.5978C83.8839 75.8398 83.8409 76.0778 83.7039 76.2518Z" fill="#171725"/>
<path d="M77.225 28.1649C75.869 28.1649 74.353 28.0149 73.385 26.9089C72.571 25.9789 72.308 24.5409 72.58 22.5169C72.96 19.6909 74.696 18.0039 77.226 18.0039C79.756 18.0039 81.493 19.6909 81.872 22.5169C82.144 24.5409 81.88 25.9769 81.066 26.9089C80.096 28.0149 78.581 28.1639 77.226 28.1639L77.225 28.1649ZM83.074 38.0149H71.376C70.713 38.0149 70.126 37.7349 69.726 37.2289C69.304 36.6949 69.15 35.9589 69.316 35.2609C70.15 31.7309 73.402 29.2639 77.224 29.2639C81.046 29.2639 84.298 31.7299 85.134 35.2609C85.298 35.9589 85.144 36.6949 84.722 37.2279C84.322 37.7329 83.737 38.0129 83.074 38.0129V38.0149Z" fill="#FF6600"/>
<path d="M117 64.21C114.91 64.21 113.21 65.91 113.21 68C113.21 70.09 114.91 71.79 117 71.79C119.09 71.79 120.79 70.09 120.79 68C120.79 65.91 119.09 64.21 117 64.21ZM117 70.29C115.738 70.29 114.71 69.264 114.71 68C114.71 66.736 115.74 65.71 117 65.71C118.26 65.71 119.29 66.736 119.29 68C119.29 69.264 118.262 70.29 117 70.29Z" fill="black"/>
<path d="M117.36 78.375H116.638C115.455 78.375 114.484 77.487 114.376 76.311L114.362 76.164C114.337 75.877 114.155 75.631 113.89 75.52C113.604 75.4 113.308 75.455 113.092 75.635L112.976 75.732C112.108 76.457 110.723 76.395 109.916 75.592L109.406 75.082C108.57 74.242 108.51 72.928 109.266 72.022L109.364 71.904C109.55 71.682 109.594 71.381 109.486 71.117C109.376 70.845 109.128 70.663 108.84 70.637L108.69 70.623C107.51 70.516 106.623 69.543 106.623 68.361V67.639C106.623 66.456 107.511 65.485 108.687 65.377L108.843 65.363C109.128 65.338 109.373 65.156 109.485 64.89C109.595 64.62 109.55 64.317 109.365 64.095L109.271 63.979C108.514 63.071 108.573 61.756 109.408 60.919L109.92 60.407C110.724 59.603 112.108 59.542 112.98 60.267L113.096 60.365C113.314 60.549 113.624 60.595 113.886 60.487C114.156 60.375 114.338 60.129 114.363 59.844L114.377 59.691C114.484 58.511 115.457 57.625 116.639 57.625H117.361C118.544 57.625 119.515 58.513 119.623 59.689L119.637 59.845C119.662 60.13 119.843 60.375 120.109 60.485C120.386 60.602 120.689 60.547 120.903 60.368L121.023 60.266C121.89 59.543 123.277 59.604 124.083 60.406L124.593 60.918C125.429 61.756 125.489 63.071 124.733 63.978L124.633 64.096C124.445 64.316 124.399 64.618 124.51 64.884C124.622 65.154 124.87 65.334 125.156 65.362L125.308 65.376C126.488 65.483 127.375 66.456 127.375 67.638V68.361C127.375 69.544 126.487 70.515 125.311 70.623L125.156 70.637C124.872 70.661 124.626 70.842 124.516 71.107C124.403 71.379 124.449 71.681 124.633 71.902L124.733 72.022C125.489 72.927 125.429 74.242 124.593 75.082L124.083 75.592C123.276 76.396 121.893 76.456 121.023 75.732L120.908 75.636C120.691 75.453 120.378 75.406 120.118 75.514C119.845 75.628 119.663 75.874 119.638 76.16L119.624 76.31C119.517 77.483 118.544 78.37 117.362 78.37L117.36 78.375ZM113.587 73.955C113.887 73.955 114.18 74.015 114.457 74.13C115.247 74.458 115.781 75.184 115.857 76.026L115.871 76.173C115.908 76.573 116.238 76.873 116.641 76.873H117.363C117.763 76.873 118.093 76.573 118.131 76.173L118.145 76.025C118.221 75.183 118.755 74.458 119.537 74.133C120.33 73.803 121.233 73.951 121.87 74.483L121.983 74.577C122.161 74.725 122.349 74.757 122.476 74.757C122.682 74.757 122.876 74.677 123.022 74.53L123.532 74.02C123.816 73.736 123.837 73.29 123.58 72.982L123.48 72.862C122.938 72.212 122.803 71.322 123.128 70.539C123.454 69.749 124.18 69.219 125.022 69.142L125.177 69.128C125.574 69.091 125.877 68.761 125.877 68.358V67.636C125.877 67.236 125.574 66.906 125.175 66.868L125.023 66.854C124.177 66.776 123.453 66.244 123.128 65.461C122.802 64.673 122.938 63.783 123.481 63.134L123.581 63.016C123.838 62.706 123.817 62.26 123.533 61.976L123.023 61.466C122.877 61.319 122.683 61.239 122.477 61.239C122.35 61.239 122.162 61.271 121.985 61.419L121.865 61.519C121.231 62.047 120.315 62.189 119.543 61.873C118.755 61.546 118.223 60.821 118.146 59.977L118.132 59.822C118.097 59.425 117.767 59.122 117.365 59.122H116.642C116.242 59.122 115.912 59.425 115.874 59.824L115.86 59.976C115.784 60.819 115.252 61.544 114.47 61.869C113.683 62.195 112.777 62.052 112.14 61.519L112.022 61.423C111.842 61.273 111.654 61.243 111.527 61.243C111.321 61.243 111.127 61.323 110.981 61.469L110.469 61.979C110.187 62.263 110.166 62.709 110.423 63.017L110.523 63.135C111.063 63.788 111.2 64.679 110.875 65.46C110.548 66.248 109.823 66.78 108.98 66.857L108.824 66.871C108.427 66.908 108.124 67.238 108.124 67.641V68.363C108.124 68.763 108.427 69.093 108.826 69.131L108.976 69.145C109.824 69.223 110.549 69.757 110.873 70.541C111.198 71.327 111.063 72.216 110.52 72.866L110.424 72.981C110.164 73.291 110.186 73.737 110.47 74.021L110.98 74.531C111.126 74.678 111.32 74.758 111.526 74.758C111.653 74.758 111.841 74.728 112.018 74.578L112.134 74.482C112.54 74.146 113.057 73.958 113.587 73.958V73.955Z" fill="black"/>
<path fill-rule="evenodd" clip-rule="evenodd" d="M117.36 38.75H116.638C115.455 38.75 114.484 37.862 114.376 36.686L114.362 36.539C114.337 36.252 114.155 36.006 113.89 35.895C113.604 35.775 113.308 35.83 113.092 36.01L112.976 36.107C112.108 36.832 110.723 36.77 109.916 35.967L109.406 35.457C108.57 34.617 108.51 33.303 109.266 32.397L109.364 32.279C109.55 32.057 109.594 31.756 109.486 31.492C109.376 31.22 109.128 31.038 108.84 31.012L108.69 30.998C107.51 30.891 106.623 29.918 106.623 28.736V28.014C106.623 26.831 107.511 25.86 108.687 25.752L108.843 25.738C109.128 25.713 109.373 25.531 109.485 25.265C109.595 24.995 109.55 24.692 109.365 24.47L109.271 24.354C108.514 23.446 108.573 22.131 109.408 21.294L109.92 20.782C110.724 19.978 112.108 19.917 112.98 20.642L113.096 20.74C113.314 20.924 113.624 20.97 113.886 20.862C114.156 20.75 114.338 20.504 114.363 20.219L114.377 20.066C114.484 18.886 115.457 18 116.639 18H117.361C118.544 18 119.515 18.888 119.623 20.064L119.637 20.22C119.662 20.505 119.843 20.75 120.109 20.86C120.386 20.977 120.689 20.922 120.903 20.743L121.023 20.641C121.89 19.918 123.277 19.979 124.083 20.781L124.593 21.293C125.429 22.131 125.489 23.446 124.733 24.353L124.633 24.471C124.445 24.691 124.399 24.993 124.51 25.259C124.622 25.529 124.87 25.709 125.156 25.737L125.308 25.751C126.488 25.858 127.375 26.831 127.375 28.013V28.736C127.375 29.919 126.487 30.89 125.311 30.998L125.156 31.012C124.872 31.036 124.626 31.217 124.516 31.482C124.403 31.754 124.449 32.056 124.633 32.277L124.733 32.397C125.489 33.302 125.429 34.617 124.593 35.457L124.083 35.967C123.276 36.771 121.893 36.831 121.023 36.107L120.908 36.011C120.691 35.828 120.378 35.781 120.118 35.889C119.845 36.003 119.663 36.249 119.638 36.535L119.624 36.685C119.517 37.858 118.544 38.745 117.362 38.745L117.36 38.75ZM113.21 28.375C113.21 26.285 114.91 24.585 117 24.585C119.09 24.585 120.79 26.285 120.79 28.375C120.79 30.465 119.09 32.165 117 32.165C114.91 32.165 113.21 30.465 113.21 28.375ZM114.71 28.375C114.71 29.639 115.738 30.665 117 30.665C118.262 30.665 119.29 29.639 119.29 28.375C119.29 27.111 118.26 26.085 117 26.085C115.74 26.085 114.71 27.111 114.71 28.375Z" fill="#FF6600"/>
<path d="M231 59C230.204 59 229.441 59.3161 228.879 59.8787C228.316 60.4413 228 61.2044 228 62V74C228 74.7956 228.316 75.5587 228.879 76.1213C229.441 76.6839 230.204 77 231 77H236C236.265 77 236.52 76.8946 236.707 76.7071C236.895 76.5196 237 76.2652 237 76C237 75.7348 236.895 75.4804 236.707 75.2929C236.52 75.1054 236.265 75 236 75H231C230.735 75 230.48 74.8946 230.293 74.7071C230.105 74.5196 230 74.2652 230 74V62C230 61.7348 230.105 61.4804 230.293 61.2929C230.48 61.1054 230.735 61 231 61H236C236.265 61 236.52 60.8946 236.707 60.7071C236.895 60.5196 237 60.2652 237 60C237 59.7348 236.895 59.4804 236.707 59.2929C236.52 59.1054 236.265 59 236 59H231Z" fill="#171725"/>
<path d="M240.293 63.2928C240.481 63.1053 240.735 63 241 63C241.265 63 241.519 63.1053 241.707 63.2928L245.707 67.2928C245.894 67.4803 246 67.7346 246 67.9998C246 68.265 245.894 68.5193 245.707 68.7068L241.707 72.7068C241.518 72.8889 241.266 72.9897 241.004 72.9875C240.741 72.9852 240.491 72.88 240.305 72.6946C240.12 72.5092 240.015 72.2584 240.012 71.9962C240.01 71.734 240.111 71.4814 240.293 71.2928L242.586 68.9998H235C234.735 68.9998 234.48 68.8944 234.293 68.7069C234.105 68.5194 234 68.265 234 67.9998C234 67.7346 234.105 67.4802 234.293 67.2927C234.48 67.1051 234.735 66.9998 235 66.9998H242.586L240.293 64.7068C240.106 64.5193 240 64.265 240 63.9998C240 63.7346 240.106 63.4803 240.293 63.2928Z" fill="#171725"/>
<path d="M324.708 78H309.292C308.028 78 307 76.972 307 75.708V63.375C307 62.11 308.028 61.083 309.292 61.083H311.438C312.633 59.17 314.722 58 317 58C319.277 58 321.367 59.17 322.562 61.083H324.708C325.972 61.083 327 62.11 327 63.375V75.708C327 76.972 325.972 78 324.708 78ZM309.292 62.583C308.855 62.583 308.5 62.938 308.5 63.375V75.708C308.5 76.145 308.855 76.5 309.292 76.5H324.708C325.145 76.5 325.5 76.145 325.5 75.708V63.375C325.5 62.938 325.145 62.583 324.708 62.583H322.258C321.941 62.633 321.626 62.488 321.476 62.201C320.596 60.536 318.882 59.501 317 59.501C315.117 59.501 313.402 60.536 312.524 62.203C312.364 62.505 312.022 62.663 311.691 62.583H309.293H309.292Z" fill="#171725"/>
<path d="M317 64.167C314.32 64.167 312.14 66.347 312.14 69.027C312.14 71.707 314.32 73.887 317 73.887C319.68 73.887 321.86 71.707 321.86 69.027C321.86 66.347 319.68 64.167 317 64.167ZM319 69.75H317.75V71C317.75 71.414 317.414 71.75 317 71.75C316.586 71.75 316.25 71.414 316.25 71V69.75H315C314.586 69.75 314.25 69.414 314.25 69C314.25 68.586 314.586 68.25 315 68.25H316.25V67C316.25 66.586 316.586 66.25 317 66.25C317.414 66.25 317.75 66.586 317.75 67V68.25H319C319.414 68.25 319.75 68.586 319.75 69C319.75 69.414 319.414 69.75 319 69.75Z" fill="#171725"/>
<path d="M324.708 118H309.292C308.028 118 307 116.972 307 115.708V103.375C307 102.11 308.028 101.083 309.292 101.083H311.438C312.633 99.17 314.722 98 317 98C319.277 98 321.367 99.17 322.562 101.083H324.708C325.972 101.083 327 102.11 327 103.375V115.708C327 116.972 325.972 118 324.708 118ZM309.292 102.583C308.855 102.583 308.5 102.938 308.5 103.375V115.708C308.5 116.145 308.855 116.5 309.292 116.5H324.708C325.145 116.5 325.5 116.145 325.5 115.708V103.375C325.5 102.938 325.145 102.583 324.708 102.583H322.258C321.941 102.633 321.626 102.488 321.476 102.201C320.596 100.536 318.882 99.501 317 99.501C315.117 99.501 313.402 100.536 312.524 102.203C312.364 102.505 312.022 102.663 311.691 102.583H309.293H309.292Z" fill="white"/>
<path d="M317 104.167C314.32 104.167 312.14 106.347 312.14 109.027C312.14 111.707 314.32 113.887 317 113.887C319.68 113.887 321.86 111.707 321.86 109.027C321.86 106.347 319.68 104.167 317 104.167ZM319 109.75H317.75V111C317.75 111.414 317.414 111.75 317 111.75C316.586 111.75 316.25 111.414 316.25 111V109.75H315C314.586 109.75 314.25 109.414 314.25 109C314.25 108.586 314.586 108.25 315 108.25H316.25V107C316.25 106.586 316.586 106.25 317 106.25C317.414 106.25 317.75 106.586 317.75 107V108.25H319C319.414 108.25 319.75 108.586 319.75 109C319.75 109.414 319.414 109.75 319 109.75Z" fill="white"/>
<path d="M156.55 28.082C156.823 28.264 157.177 28.264 157.45 28.082L167 21.716V21.5C167 20.26 165.99 19.25 164.75 19.25H149.25C148.01 19.25 147 20.26 147 21.5V21.697L156.55 28.082Z" fill="#FF6600"/>
<path d="M158.26 29.2951C157.877 29.5501 157.44 29.6771 157 29.6771C156.56 29.6771 156.123 29.5501 155.74 29.2941L147 23.4521V35.1221C147 36.3621 148.01 37.3721 149.25 37.3721H164.75C165.99 37.3721 167 36.3621 167 35.1221V23.4701L158.26 29.2931V29.2951Z" fill="#FF6600"/>
<path d="M164.25 59.0181H149.75C148.233 59.0181 147 60.2521 147 61.7701V74.2651C147 75.7831 148.233 77.0181 149.75 77.0181H164.25C165.767 77.0181 167 75.7831 167 74.2651V61.7701C167 60.2521 165.767 59.0181 164.25 59.0181ZM149.75 60.5181H164.25C164.94 60.5181 165.5 61.0781 165.5 61.7681V62.4821L157.45 67.8491C157.177 68.0291 156.824 68.0311 156.55 67.8471L148.5 62.4821V61.7681C148.5 61.0781 149.06 60.5181 149.75 60.5181ZM164.25 75.5161H149.75C149.06 75.5161 148.5 74.9561 148.5 74.2661V64.2401L155.74 69.0701C156.123 69.3261 156.562 69.4541 157 69.4541C157.44 69.4541 157.877 69.3261 158.26 69.0711L165.5 64.2411V74.2631C165.5 74.9531 164.94 75.5131 164.25 75.5131V75.5161Z" fill="black"/>
<path d="M208.24 59.26H205.815V56.832C205.815 56.418 205.479 56.082 205.065 56.082C204.651 56.082 204.315 56.418 204.315 56.832V59.26H201.89C201.476 59.26 201.14 59.595 201.14 60.01C201.14 60.425 201.476 60.76 201.89 60.76H204.316V63.184C204.316 63.598 204.652 63.934 205.066 63.934C205.48 63.934 205.816 63.598 205.816 63.184V60.76H208.241C208.656 60.76 208.991 60.423 208.991 60.01C208.991 59.597 208.655 59.26 208.241 59.26H208.24ZM202.01 66.866C202.03 64.432 201.228 62.269 199.752 60.776C198.428 59.434 196.636 58.692 194.706 58.683H194.693C192.763 58.693 190.971 59.433 189.647 60.775C188.172 62.27 187.37 64.433 187.39 66.867C187.426 71 185.467 72.56 185.39 72.62C185.13 72.813 185.023 73.15 185.124 73.458C185.226 73.766 185.514 73.973 185.836 73.973H190.552C190.662 76.199 192.492 77.98 194.746 77.98C197 77.98 198.829 76.2 198.94 73.973H203.565C203.885 73.973 204.169 73.767 204.272 73.463C204.375 73.159 204.272 72.82 204.017 72.625C203.935 72.561 201.974 71 202.009 66.865L202.01 66.866ZM194.745 76.48C193.319 76.48 192.159 75.37 192.051 73.972H197.439C197.331 75.372 196.171 76.479 194.745 76.479V76.48ZM187.455 72.473C188.157 71.378 188.912 69.569 188.889 66.855C188.872 64.793 189.503 63.055 190.714 61.83C191.757 60.774 193.172 60.19 194.7 60.184C196.227 60.191 197.643 60.774 198.685 61.83C199.895 63.056 200.525 64.793 200.508 66.855C200.486 69.569 201.24 71.378 201.945 72.473H187.455Z" fill="black"/>
<path d="M208.61 16.1501C208.235 15.9661 207.788 16.1201 207.604 16.4901L204.74 22.2661L203.037 20.4561C202.754 20.1531 202.279 20.1401 201.977 20.4241C201.675 20.7081 201.661 21.1841 201.945 21.4841L204.388 24.0801C204.531 24.2301 204.728 24.3151 204.934 24.3151C204.97 24.3151 205.007 24.3121 205.044 24.3071C205.287 24.2711 205.496 24.1171 205.606 23.8971L208.948 17.1571C209.132 16.7851 208.98 16.3351 208.608 16.1511L208.61 16.1501ZM204.018 32.6251C203.935 32.5611 201.974 31.0001 202.008 26.8651C202.03 24.4321 201.228 22.2691 199.752 20.7751C198.428 19.4351 196.636 18.6921 194.706 18.6831H194.693C192.763 18.6931 190.971 19.4331 189.647 20.7751C188.172 22.2701 187.37 24.4331 187.39 26.8671C187.426 31.0001 185.467 32.5601 185.39 32.6201C185.13 32.8131 185.023 33.1501 185.124 33.4581C185.226 33.7661 185.514 33.9731 185.836 33.9731H189.916C190.004 36.5431 192.109 38.6131 194.701 38.6131C197.293 38.6131 199.399 36.5431 199.486 33.9731H203.568C203.888 33.9731 204.172 33.7671 204.275 33.4631C204.378 33.159 204.273 32.8201 204.019 32.6251H204.018ZM194.7 36.5131C193.266 36.5131 192.1 35.3861 192.016 33.9731H197.384C197.299 35.3861 196.134 36.5131 194.7 36.5131Z" fill="#FF6600"/>
<path d="M278.414 67.9999L284.207 62.2069C284.597 61.8169 284.597 61.1839 284.207 60.7929C283.817 60.4019 283.184 60.4029 282.793 60.7929L277 66.5859L271.207 60.7929C270.817 60.4029 270.184 60.4029 269.793 60.7929C269.402 61.1829 269.403 61.8159 269.793 62.2069L275.586 67.9999L269.793 73.7929C269.403 74.1829 269.403 74.8159 269.793 75.2069C269.988 75.4019 270.243 75.4999 270.5 75.4999C270.757 75.4999 271.012 75.4019 271.207 75.2069L277 69.4139L282.793 75.2069C282.988 75.4019 283.243 75.4999 283.5 75.4999C283.757 75.4999 284.012 75.4019 284.207 75.2069C284.597 74.8169 284.597 74.1839 284.207 73.7929L278.414 67.9999Z" fill="#171725"/>
<path d="M278.414 108.5L284.207 102.707C284.597 102.317 284.597 101.684 284.207 101.293C283.817 100.902 283.184 100.903 282.793 101.293L277 107.086L271.207 101.293C270.817 100.903 270.184 100.903 269.793 101.293C269.402 101.683 269.403 102.316 269.793 102.707L275.586 108.5L269.793 114.293C269.403 114.683 269.403 115.316 269.793 115.707C269.988 115.902 270.243 116 270.5 116C270.757 116 271.012 115.902 271.207 115.707L277 109.914L282.793 115.707C282.988 115.902 283.243 116 283.5 116C283.757 116 284.012 115.902 284.207 115.707C284.597 115.317 284.597 114.684 284.207 114.293L278.414 108.5Z" fill="white"/>
<path d="M278.414 28.4999L284.207 22.7069C284.597 22.3169 284.597 21.6839 284.207 21.2929C283.817 20.9019 283.184 20.9029 282.793 21.2929L277 27.0859L271.207 21.2929C270.817 20.9029 270.184 20.9029 269.793 21.2929C269.402 21.6829 269.403 22.3159 269.793 22.7069L275.586 28.4999L269.793 34.2929C269.403 34.6829 269.403 35.3159 269.793 35.7069C269.988 35.9019 270.243 35.9999 270.5 35.9999C270.757 35.9999 271.012 35.9019 271.207 35.7069L277 29.9139L282.793 35.7069C282.988 35.9019 283.243 35.9999 283.5 35.9999C283.757 35.9999 284.012 35.9019 284.207 35.7069C284.597 35.3169 284.597 34.6839 284.207 34.2929L278.414 28.4999Z" fill="#FF6600"/>
<path d="M42.5576 138.803L37.3726 138.79H37.3701C31.9026 138.79 27.6201 143.074 27.6201 148.543C27.6201 153.665 31.6026 157.55 36.9514 157.755V162.54C36.9514 162.675 37.0064 162.898 37.1014 163.044C37.2789 163.325 37.5814 163.478 37.8914 163.478C38.0639 163.478 38.2376 163.43 38.3939 163.33C38.7239 163.12 46.4851 158.155 48.5039 156.448C50.8814 154.435 52.3039 151.485 52.3076 148.558V148.536C52.3001 143.078 48.0201 138.803 42.5576 138.801V138.803ZM47.2914 155.018C45.8739 156.218 41.2139 159.274 38.8264 160.821V156.838C38.8264 156.32 38.4076 155.9 37.8889 155.9H37.3939C32.8189 155.9 29.4964 152.805 29.4964 148.543C29.4964 144.125 32.9564 140.665 37.3714 140.665L42.5551 140.678H42.5576C46.9726 140.678 50.4326 144.135 50.4351 148.548C50.4314 150.935 49.2576 153.353 47.2926 155.018H47.2914Z" fill="#657786"/>
<path d="M86 163.047H85.9825C82.7537 162.987 73.4375 154.57 73.4375 146.597C73.4375 142.767 76.5937 139.405 80.1912 139.405C83.0537 139.405 84.9787 141.38 85.9987 142.817C87.0162 141.382 88.9412 139.405 91.805 139.405C95.405 139.405 98.56 142.767 98.56 146.599C98.56 154.569 89.2425 162.986 86.0137 163.045H86V163.047ZM80.1925 141.281C77.5925 141.281 75.3137 143.766 75.3137 146.6C75.3137 153.775 84.1062 161.095 86.0012 161.172C87.8987 161.095 96.6887 153.776 96.6887 146.6C96.6887 143.766 94.41 141.281 91.81 141.281C88.65 141.281 86.885 144.951 86.87 144.987C86.5825 145.69 85.425 145.69 85.1362 144.987C85.1187 144.95 83.355 141.281 80.1937 141.281H80.1925Z" fill="#657786"/>
<path d="M42.5576 177.803L37.3726 177.79H37.3701C31.9026 177.79 27.6201 182.074 27.6201 187.543C27.6201 192.665 31.6026 196.55 36.9514 196.755V201.54C36.9514 201.675 37.0064 201.898 37.1014 202.044C37.2789 202.325 37.5814 202.478 37.8914 202.478C38.0639 202.478 38.2376 202.43 38.3939 202.33C38.7239 202.12 46.4851 197.155 48.5039 195.448C50.8814 193.435 52.3039 190.485 52.3076 187.558V187.536C52.3001 182.078 48.0201 177.803 42.5576 177.801V177.803ZM47.2914 194.018C45.8739 195.218 41.2139 198.274 38.8264 199.821V195.838C38.8264 195.32 38.4076 194.9 37.8889 194.9H37.3939C32.8189 194.9 29.4964 191.805 29.4964 187.543C29.4964 183.125 32.9564 179.665 37.3714 179.665L42.5551 179.678H42.5576C46.9726 179.678 50.4326 183.135 50.4351 187.548C50.4314 189.935 49.2576 192.353 47.2926 194.018H47.2914Z" fill="#FF6600"/>
<path d="M86 202.047H85.9825C82.7537 201.987 73.4375 193.57 73.4375 185.597C73.4375 181.767 76.5937 178.405 80.1912 178.405C83.0537 178.405 84.9787 180.38 85.9987 181.817C87.0162 180.382 88.9412 178.405 91.805 178.405C95.405 178.405 98.56 181.767 98.56 185.599C98.56 193.569 89.2425 201.986 86.0137 202.045H86V202.047ZM80.1925 180.281C77.5925 180.281 75.3137 182.766 75.3137 185.6C75.3137 192.775 84.1062 200.095 86.0012 200.172C87.8987 200.095 96.6887 192.776 96.6887 185.6C96.6887 182.766 94.41 180.281 91.81 180.281C88.65 180.281 86.885 183.951 86.87 183.987C86.5825 184.69 85.425 184.69 85.1362 183.987C85.1187 183.95 83.355 180.281 80.1937 180.281H80.1925Z" fill="#FF6600"/>
<path d="M132 163.048H131.983C128.754 162.988 119.438 154.57 119.438 146.598C119.438 142.768 122.594 139.405 126.191 139.405C129.054 139.405 130.979 141.38 131.999 142.818C133.016 141.383 134.941 139.405 137.805 139.405C141.405 139.405 144.56 142.768 144.56 146.599C144.56 154.569 135.242 162.987 132.014 163.045H132V163.048Z" fill="#FC5A5A"/>
<path d="M45 107H32.414L36.707 102.707C37.097 102.317 37.097 101.684 36.707 101.293C36.317 100.902 35.684 100.903 35.293 101.293L29.293 107.293C28.903 107.683 28.903 108.316 29.293 108.707L35.293 114.707C35.488 114.902 35.743 115 36 115C36.257 115 36.512 114.902 36.707 114.707C37.097 114.317 37.097 113.684 36.707 113.293L32.414 109H45C45.553 109 46 108.553 46 108C46 107.447 45.553 107 45 107Z" fill="black"/>
<path d="M171.8 146.2H168.6V142.9C168.6 142.5 168.3 142.1 167.8 142.1C167.3 142.1 167.1 142.5 167.1 142.9V146.2H163.8C163.4 146.2 163 146.5 163 147C163 147.5 163.3 147.8 163.8 147.8H167.1V151.1C167.1 151.5 167.4 151.9 167.9 151.9C168.4 151.9 168.7 151.6 168.7 151.1V147.7H172C172.4 147.7 172.8 147.4 172.8 146.9C172.8 146.4 172.3 146.2 171.8 146.2ZM186.8 141.3V141.2H186.7C186.6 141.2 177.5 142.4 172.3 152.9C168.5 160.5 168.7 162.8 169 162.8C169.3 162.9 172.4 156.3 175.7 153.6C180.9 152.5 182.3 150 182.3 150C182.3 150 180.8 150.2 180.2 150.2C179.4 150.2 178.8 150 178.5 149.9C179.8 148.7 180.9 148.4 182 148.2C182.9 148 183.8 147.8 185 147C187.2 145.4 186.9 141.5 186.8 141.3Z" fill="black"/>
<path d="M77.0029 119.274C76.9199 119.274 76.8359 119.26 76.7549 119.232C76.4549 119.127 76.2529 118.842 76.2529 118.524V114.384C74.1729 114.212 72.2399 113.318 70.7469 111.824C67.2969 108.374 67.2969 102.762 70.7469 99.314C74.1969 95.8658 79.8089 95.8638 83.2589 99.314C86.3549 102.411 86.7089 107.384 84.0789 110.879L77.5889 118.991C77.4429 119.173 77.2259 119.273 77.0019 119.273L77.0029 119.274ZM77.0029 98.224C75.1209 98.224 73.2399 98.941 71.8079 100.374C68.9439 103.237 68.9439 107.898 71.8079 110.764C73.1959 112.151 75.0409 112.914 77.0029 112.914C77.4169 112.914 77.7529 113.251 77.7529 113.664V116.384L82.8949 109.959C85.0649 107.074 84.7709 102.945 82.1989 100.372C80.7649 98.942 78.8829 98.224 77.0019 98.224H77.0029Z" fill="black"/>
<path d="M80.55 104.7H73.45C73.037 104.7 72.7 104.363 72.7 103.95C72.7 103.537 73.037 103.2 73.45 103.2H80.55C80.963 103.2 81.3 103.535 81.3 103.95C81.3 104.365 80.963 104.7 80.55 104.7ZM77.5 107.938H73.45C73.037 107.938 72.7 107.602 72.7 107.188C72.7 106.774 73.037 106.438 73.45 106.438H77.5C77.914 106.438 78.25 106.774 78.25 107.188C78.25 107.602 77.914 107.938 77.5 107.938Z" fill="black"/>
<path d="M123.265 99.5875C119.815 96.1375 114.195 96.1375 110.745 99.5875C107.295 103.028 107.295 108.647 110.745 112.097C112.245 113.587 114.175 114.477 116.255 114.657V118.797C116.255 119.107 116.455 119.397 116.755 119.497C116.835 119.527 116.925 119.547 117.005 119.547C117.225 119.547 117.445 119.447 117.595 119.257L124.085 111.147C126.715 107.657 126.355 102.677 123.265 99.5875ZM112.705 107.457C112.705 107.047 113.035 106.707 113.455 106.707H117.505C117.915 106.707 118.255 107.047 118.255 107.457C118.255 107.867 117.915 108.207 117.505 108.207H113.455C113.035 108.207 112.705 107.867 112.705 107.457ZM121.305 104.217C121.305 104.637 120.965 104.967 120.555 104.967H113.455C113.035 104.967 112.705 104.637 112.705 104.217C112.705 103.807 113.035 103.467 113.455 103.467H120.555C120.965 103.467 121.305 103.807 121.305 104.217Z" fill="black"/>
</svg>
