<svg width="22" height="20" viewBox="0 0 22 20" fill="none" xmlns="http://www.w3.org/2000/svg">
<path d="M11.0002 19.6381H10.9862C8.40319 19.5901 0.950195 12.8561 0.950195 6.47806C0.950195 3.41406 3.47519 0.72406 6.35319 0.72406C8.64319 0.72406 10.1832 2.30406 10.9992 3.45406C11.8132 2.30606 13.3532 0.72406 15.6442 0.72406C18.5242 0.72406 21.0482 3.41406 21.0482 6.47906C21.0482 12.8551 13.5942 19.5891 11.0112 19.6361H11.0002V19.6381ZM6.3542 2.22506C4.2742 2.22506 2.4512 4.21306 2.4512 6.48006C2.4512 12.2201 9.4852 18.0761 11.0012 18.1381C12.5192 18.0761 19.5512 12.2211 19.5512 6.48006C19.5512 4.21306 17.7282 2.22506 15.6482 2.22506C13.1202 2.22506 11.7082 5.16106 11.6962 5.19006C11.4662 5.75206 10.5402 5.75206 10.3092 5.19006C10.2952 5.16006 8.88419 2.22506 6.35519 2.22506H6.3542Z" fill="#6C757D"/>
</svg>
