<svg width="13" height="14" viewBox="0 0 13 14" fill="none" xmlns="http://www.w3.org/2000/svg">
<path d="M7.77881 0.90127L5.18631 0.89502H5.18506C2.45131 0.89502 0.310059 3.03689 0.310059 5.77127C0.310059 8.33252 2.30131 10.275 4.97568 10.3775V12.77C4.97568 12.8375 5.00318 12.9488 5.05068 13.0219C5.13943 13.1625 5.29068 13.2388 5.44568 13.2388C5.53193 13.2388 5.61881 13.215 5.69693 13.165C5.86193 13.06 9.74256 10.5775 10.7519 9.72377C11.9407 8.71752 12.6519 7.24252 12.6538 5.77877V5.76814C12.6501 3.03877 10.5101 0.901269 7.77881 0.900644V0.90127ZM10.1457 9.00877C9.43693 9.60877 7.10693 11.1369 5.91318 11.9106V9.91877C5.91318 9.66002 5.70381 9.45002 5.44443 9.45002H5.19693C2.90943 9.45002 1.24818 7.90252 1.24818 5.77127C1.24818 3.56252 2.97818 1.83252 5.18568 1.83252L7.77756 1.83877H7.77881C9.98631 1.83877 11.7163 3.56752 11.7176 5.77377C11.7157 6.96752 11.1288 8.17627 10.1463 9.00877H10.1457Z" fill="#657786"/>
</svg>
