<svg width="24" height="22" viewBox="0 0 24 22" fill="none" xmlns="http://www.w3.org/2000/svg">
<path d="M22.5804 6.34986L12.4754 0.896855C12.1784 0.736855 11.8214 0.736855 11.5254 0.896855L1.42545 6.34986C0.939446 6.61386 0.758446 7.21986 1.02045 7.70586C1.20045 8.04086 1.54545 8.23086 1.90045 8.23086C2.06045 8.23086 2.22445 8.19286 2.37545 8.11086L3.10945 7.71486L4.69945 18.9649C4.91545 20.1789 6.00945 21.0269 7.35945 21.0269H16.6414C17.9914 21.0269 19.0854 20.1789 19.3034 18.9389L20.8914 7.71386L21.6284 8.11186C22.1134 8.37486 22.7204 8.19386 22.9824 7.70786C23.2454 7.22186 23.0624 6.61486 22.5784 6.35286L22.5804 6.34986ZM12.0004 14.4349C10.2054 14.4349 8.75045 12.9799 8.75045 11.1849C8.75045 9.38986 10.2054 7.93486 12.0004 7.93486C13.7954 7.93486 15.2504 9.38986 15.2504 11.1849C15.2504 12.9799 13.7954 14.4349 12.0004 14.4349Z" fill="#1C1C1C"/>
</svg>
