<svg width="178" height="58" viewBox="0 0 178 58" fill="none" xmlns="http://www.w3.org/2000/svg">
<path d="M38.58 24.35L28.475 18.897C28.178 18.737 27.821 18.737 27.525 18.897L17.425 24.35C16.939 24.614 16.758 25.22 17.02 25.706C17.2 26.041 17.545 26.231 17.9 26.231C18.06 26.231 18.224 26.193 18.375 26.111L19.109 25.715L20.699 36.965C20.915 38.179 22.009 39.027 23.359 39.027H32.641C33.991 39.027 35.085 38.179 35.303 36.939L36.891 25.714L37.628 26.112C38.113 26.375 38.72 26.194 38.982 25.708C39.245 25.222 39.062 24.615 38.578 24.353L38.58 24.35ZM28 32.435C26.205 32.435 24.75 30.98 24.75 29.185C24.75 27.39 26.205 25.935 28 25.935C29.795 25.935 31.25 27.39 31.25 29.185C31.25 30.98 29.795 32.435 28 32.435Z" fill="#FF6600"/>
<path d="M60.374 30.214V31.87H69.59V30.214H60.374ZM60.374 33.04V34.678H69.59V33.04H60.374ZM60.374 35.902V37.774H69.608V35.902H60.374ZM56.864 24.13V26.128H73.19V24.13H56.864ZM58.628 27.244V38.62H60.788V29.116H69.014V38.62H71.264V27.244H58.628ZM63.884 25.318C63.74 26.164 63.434 27.316 63.11 28.144L65.216 28.396C65.63 27.622 66.206 26.542 66.62 25.39L63.884 25.318ZM68.096 21.664C67.736 22.492 67.106 23.608 66.548 24.364L68.474 24.904C69.086 24.238 69.878 23.248 70.58 22.204L68.096 21.664ZM59.672 22.438C60.32 23.14 61.058 24.13 61.364 24.76L63.38 23.716C63.002 23.104 62.282 22.222 61.598 21.592L59.672 22.438ZM79.184 29.782H86.87V30.772H79.184V29.782ZM79.184 32.32H86.87V33.328H79.184V32.32ZM79.184 27.244H86.87V28.234H79.184V27.244ZM76.916 25.606V34.966H89.228V25.606H76.916ZM83.864 36.28C85.862 36.964 87.932 37.954 89.12 38.62L91.28 37.18C89.894 36.514 87.536 35.56 85.484 34.876L83.864 36.28ZM75.386 22.546V24.508H90.488V22.546H75.386ZM81.83 23.5C81.776 24.346 81.56 25.516 81.362 26.344L83.45 26.686C83.738 25.948 84.116 24.886 84.458 23.77L81.83 23.5ZM80.264 34.75C79.022 35.524 76.592 36.46 74.684 36.946C75.188 37.396 75.818 38.134 76.178 38.602C78.068 38.08 80.516 37.126 82.136 36.226L80.264 34.75Z" fill="#FF6600"/>
</svg>
