<svg width="178" height="58" viewBox="0 0 178 58" fill="none" xmlns="http://www.w3.org/2000/svg">
<path d="M28 25.21C25.91 25.21 24.21 26.91 24.21 29C24.21 31.09 25.91 32.79 28 32.79C30.09 32.79 31.79 31.09 31.79 29C31.79 26.91 30.09 25.21 28 25.21ZM28 31.29C26.738 31.29 25.71 30.264 25.71 29C25.71 27.736 26.74 26.71 28 26.71C29.26 26.71 30.29 27.736 30.29 29C30.29 30.264 29.262 31.29 28 31.29V31.29Z" fill="black"/>
<path d="M28.36 39.375H27.638C26.455 39.375 25.484 38.487 25.376 37.311L25.362 37.164C25.337 36.877 25.155 36.631 24.89 36.52C24.604 36.4 24.308 36.455 24.092 36.635L23.976 36.732C23.108 37.457 21.723 37.395 20.916 36.592L20.406 36.082C19.57 35.242 19.51 33.928 20.266 33.022L20.364 32.904C20.55 32.682 20.594 32.381 20.486 32.117C20.376 31.845 20.128 31.663 19.84 31.637L19.69 31.623C18.51 31.516 17.623 30.543 17.623 29.361V28.639C17.623 27.456 18.511 26.485 19.687 26.377L19.843 26.363C20.128 26.338 20.373 26.156 20.485 25.89C20.595 25.62 20.55 25.317 20.365 25.095L20.271 24.979C19.514 24.071 19.573 22.756 20.408 21.919L20.92 21.407C21.724 20.603 23.108 20.542 23.98 21.267L24.096 21.365C24.314 21.549 24.624 21.595 24.886 21.487C25.156 21.375 25.338 21.129 25.363 20.844L25.377 20.691C25.484 19.511 26.457 18.625 27.639 18.625H28.361C29.544 18.625 30.515 19.513 30.623 20.689L30.637 20.845C30.662 21.13 30.843 21.375 31.109 21.485C31.386 21.602 31.689 21.547 31.903 21.368L32.023 21.266C32.89 20.543 34.277 20.604 35.083 21.406L35.593 21.918C36.429 22.756 36.489 24.071 35.733 24.978L35.633 25.096C35.445 25.316 35.399 25.618 35.51 25.884C35.622 26.154 35.87 26.334 36.156 26.362L36.308 26.376C37.488 26.483 38.375 27.456 38.375 28.638V29.361C38.375 30.544 37.487 31.515 36.311 31.623L36.156 31.637C35.872 31.661 35.626 31.842 35.516 32.107C35.403 32.379 35.449 32.681 35.633 32.902L35.733 33.022C36.489 33.927 36.429 35.242 35.593 36.082L35.083 36.592C34.276 37.396 32.893 37.456 32.023 36.732L31.908 36.636C31.691 36.453 31.378 36.406 31.118 36.514C30.845 36.628 30.663 36.874 30.638 37.16L30.624 37.31C30.517 38.483 29.544 39.37 28.362 39.37L28.36 39.375ZM24.587 34.955C24.887 34.955 25.18 35.015 25.457 35.13C26.247 35.458 26.781 36.184 26.857 37.026L26.871 37.173C26.908 37.573 27.238 37.873 27.641 37.873H28.363C28.763 37.873 29.093 37.573 29.131 37.173L29.145 37.025C29.221 36.183 29.755 35.458 30.537 35.133C31.33 34.803 32.233 34.951 32.87 35.483L32.983 35.577C33.161 35.725 33.349 35.757 33.476 35.757C33.682 35.757 33.876 35.677 34.022 35.53L34.532 35.02C34.816 34.736 34.837 34.29 34.58 33.982L34.48 33.862C33.938 33.212 33.803 32.322 34.128 31.539C34.454 30.749 35.18 30.219 36.022 30.142L36.177 30.128C36.574 30.091 36.877 29.761 36.877 29.358V28.636C36.877 28.236 36.574 27.906 36.175 27.868L36.023 27.854C35.177 27.776 34.453 27.244 34.128 26.461C33.802 25.673 33.938 24.783 34.481 24.134L34.581 24.016C34.838 23.706 34.817 23.26 34.533 22.976L34.023 22.466C33.877 22.319 33.683 22.239 33.477 22.239C33.35 22.239 33.162 22.271 32.985 22.419L32.865 22.519C32.231 23.047 31.315 23.189 30.543 22.873C29.755 22.546 29.223 21.821 29.146 20.977L29.132 20.822C29.097 20.425 28.767 20.122 28.365 20.122H27.642C27.242 20.122 26.912 20.425 26.874 20.824L26.86 20.976C26.784 21.819 26.252 22.544 25.47 22.869C24.683 23.195 23.777 23.052 23.14 22.519L23.022 22.423C22.842 22.273 22.654 22.243 22.527 22.243C22.321 22.243 22.127 22.323 21.981 22.469L21.469 22.979C21.187 23.263 21.166 23.709 21.423 24.017L21.523 24.135C22.063 24.788 22.2 25.679 21.875 26.46C21.548 27.248 20.823 27.78 19.98 27.857L19.824 27.871C19.427 27.908 19.124 28.238 19.124 28.641V29.363C19.124 29.763 19.427 30.093 19.826 30.131L19.976 30.145C20.824 30.223 21.549 30.757 21.873 31.541C22.198 32.327 22.063 33.216 21.52 33.866L21.424 33.981C21.164 34.291 21.186 34.737 21.47 35.021L21.98 35.531C22.126 35.678 22.32 35.758 22.526 35.758C22.653 35.758 22.841 35.728 23.018 35.578L23.134 35.482C23.54 35.146 24.057 34.958 24.587 34.958V34.955Z" fill="black"/>
<path d="M57.44 27.208V28.846H62.984V27.208H57.44ZM57.44 29.656V31.276H63.02V29.656H57.44ZM56.684 24.706V26.416H63.74V24.706H56.684ZM58.412 32.14V33.868H61.13V35.884H58.412V37.612H63.002V32.14H58.412ZM57.458 32.14V38.386H59.294V32.14H57.458ZM58.502 22.438C58.952 23.212 59.51 24.31 59.762 24.994L61.508 24.04C61.22 23.374 60.662 22.384 60.176 21.628L58.502 22.438ZM65.36 22.294V24.292H70.166V22.294H65.36ZM63.434 29.53V31.546H71.354V29.53H63.434ZM70.598 29.53V29.854C69.59 33.598 66.62 35.83 62.768 36.658C63.146 37.126 63.614 38.026 63.83 38.584C68.15 37.396 71.39 34.93 72.704 30.016L71.354 29.458L70.994 29.53H70.598ZM65.792 31.33L63.938 31.96C65.63 35.344 68.312 37.576 72.236 38.548C72.506 37.954 73.1 37.036 73.568 36.568C69.86 35.848 67.124 33.976 65.792 31.33ZM64.964 22.294V24.238C64.964 25.444 64.748 26.758 62.768 27.73C63.146 28.036 63.902 28.882 64.154 29.314C66.44 28.09 66.944 26.074 66.944 24.31V22.294H64.964ZM69.086 22.294V26.218C69.086 28.018 69.428 28.774 71.12 28.774C71.372 28.774 71.822 28.774 72.056 28.774C72.434 28.774 72.83 28.756 73.082 28.63C72.992 28.144 72.956 27.388 72.938 26.848C72.704 26.92 72.29 26.974 72.056 26.974C71.894 26.974 71.48 26.974 71.318 26.974C71.102 26.974 71.084 26.758 71.084 26.236V22.294H69.086ZM78.014 27.244V29.314H87.968V27.244H78.014ZM82.982 31.474V33.49H89.066V31.474H82.982ZM81.848 28.342V36.766L84.116 37.036V28.342H81.848ZM77.618 30.16C77.312 33.256 76.412 35.758 74.45 37.198C74.954 37.522 75.854 38.26 76.196 38.656C78.266 36.874 79.346 34.048 79.814 30.376L77.618 30.16ZM79.364 32.374L77.6 32.968C79.148 37.522 81.956 38.35 86.114 38.35H90.632C90.74 37.702 91.1 36.676 91.406 36.154C90.2 36.208 87.194 36.208 86.24 36.208C83.036 36.19 80.516 35.686 79.364 32.374ZM75.26 23.626V28.144H77.384V25.66H88.508V28.144H90.74V23.626H75.26ZM81.344 22.132C81.758 22.942 82.136 24.022 82.28 24.67L84.566 23.986C84.386 23.302 83.936 22.294 83.504 21.52L81.344 22.132Z" fill="#44444F"/>
</svg>
