<svg width="178" height="58" viewBox="0 0 178 58" fill="none" xmlns="http://www.w3.org/2000/svg">
<path d="M38.46 24.57L28.357 19.115C28.134 18.995 27.867 18.995 27.644 19.115L17.543 24.57C17.179 24.767 17.043 25.222 17.24 25.587C17.375 25.837 17.634 25.98 17.9 25.98C18.02 25.98 18.143 25.95 18.256 25.89L19.071 25.45L20.7 36.963C20.914 38.178 22.008 39.025 23.358 39.025H32.64C33.992 39.025 35.085 38.177 35.303 36.938L36.929 25.448L37.747 25.89C38.111 26.083 38.567 25.95 38.764 25.586C38.96 25.223 38.824 24.768 38.46 24.57V24.57ZM33.822 36.703C33.715 37.309 33.119 37.525 32.642 37.525H23.36C22.88 37.525 22.285 37.309 22.182 36.727L20.48 24.69L28 20.628L35.522 24.688L33.822 36.703V36.703Z" fill="#44444F"/>
<path d="M24.22 29.184C24.22 31.268 25.915 32.964 28 32.964C30.085 32.964 31.78 31.268 31.78 29.184C31.78 27.1 30.085 25.404 28 25.404C25.915 25.404 24.22 27.1 24.22 29.184ZM30.28 29.184C30.28 30.442 29.258 31.464 28 31.464C26.742 31.464 25.72 30.442 25.72 29.184C25.72 27.926 26.742 26.904 28 26.904C29.258 26.904 30.28 27.926 30.28 29.184Z" fill="#44444F"/>
<path d="M60.374 30.214V31.87H69.59V30.214H60.374ZM60.374 33.04V34.678H69.59V33.04H60.374ZM60.374 35.902V37.774H69.608V35.902H60.374ZM56.864 24.13V26.128H73.19V24.13H56.864ZM58.628 27.244V38.62H60.788V29.116H69.014V38.62H71.264V27.244H58.628ZM63.884 25.318C63.74 26.164 63.434 27.316 63.11 28.144L65.216 28.396C65.63 27.622 66.206 26.542 66.62 25.39L63.884 25.318ZM68.096 21.664C67.736 22.492 67.106 23.608 66.548 24.364L68.474 24.904C69.086 24.238 69.878 23.248 70.58 22.204L68.096 21.664ZM59.672 22.438C60.32 23.14 61.058 24.13 61.364 24.76L63.38 23.716C63.002 23.104 62.282 22.222 61.598 21.592L59.672 22.438ZM79.184 29.782H86.87V30.772H79.184V29.782ZM79.184 32.32H86.87V33.328H79.184V32.32ZM79.184 27.244H86.87V28.234H79.184V27.244ZM76.916 25.606V34.966H89.228V25.606H76.916ZM83.864 36.28C85.862 36.964 87.932 37.954 89.12 38.62L91.28 37.18C89.894 36.514 87.536 35.56 85.484 34.876L83.864 36.28ZM75.386 22.546V24.508H90.488V22.546H75.386ZM81.83 23.5C81.776 24.346 81.56 25.516 81.362 26.344L83.45 26.686C83.738 25.948 84.116 24.886 84.458 23.77L81.83 23.5ZM80.264 34.75C79.022 35.524 76.592 36.46 74.684 36.946C75.188 37.396 75.818 38.134 76.178 38.602C78.068 38.08 80.516 37.126 82.136 36.226L80.264 34.75Z" fill="#44444F"/>
</svg>
