<svg width="178" height="58" viewBox="0 0 178 58" fill="none" xmlns="http://www.w3.org/2000/svg">
<path d="M22 20C21.2044 20 20.4413 20.3161 19.8787 20.8787C19.3161 21.4413 19 22.2044 19 23V35C19 35.7956 19.3161 36.5587 19.8787 37.1213C20.4413 37.6839 21.2044 38 22 38H27C27.2652 38 27.5196 37.8946 27.7071 37.7071C27.8946 37.5196 28 37.2652 28 37C28 36.7348 27.8946 36.4804 27.7071 36.2929C27.5196 36.1054 27.2652 36 27 36H22C21.7348 36 21.4804 35.8946 21.2929 35.7071C21.1054 35.5196 21 35.2652 21 35V23C21 22.7348 21.1054 22.4804 21.2929 22.2929C21.4804 22.1054 21.7348 22 22 22H27C27.2652 22 27.5196 21.8946 27.7071 21.7071C27.8946 21.5196 28 21.2652 28 21C28 20.7348 27.8946 20.4804 27.7071 20.2929C27.5196 20.1054 27.2652 20 27 20H22Z" fill="#44444F"/>
<path d="M31.293 24.293C31.4805 24.1055 31.7348 24.0002 32 24.0002C32.2652 24.0002 32.5195 24.1055 32.707 24.293L36.707 28.293C36.8945 28.4805 36.9998 28.7348 36.9998 29C36.9998 29.2652 36.8945 29.5195 36.707 29.707L32.707 33.707C32.5184 33.8892 32.2658 33.99 32.0036 33.9877C31.7414 33.9854 31.4906 33.8802 31.3052 33.6948C31.1198 33.5094 31.0146 33.2586 31.0123 32.9964C31.01 32.7342 31.1108 32.4816 31.293 32.293L33.586 30H26C25.7348 30 25.4804 29.8946 25.2929 29.7071C25.1054 29.5196 25 29.2652 25 29C25 28.7348 25.1054 28.4804 25.2929 28.2929C25.4804 28.1054 25.7348 28 26 28H33.586L31.293 25.707C31.1055 25.5195 31.0002 25.2652 31.0002 25C31.0002 24.7348 31.1055 24.4805 31.293 24.293V24.293Z" fill="#44444F"/>
<path d="M61.94 26.524V28.324H68.222V26.524H61.94ZM57.044 36.424V38.242H72.974V36.424H57.044ZM57.692 22.384V24.13H63.29V22.384H57.692ZM62.66 22.384V22.762C61.67 25.462 58.988 28 56.306 29.152C56.738 29.548 57.332 30.286 57.62 30.772C60.68 29.26 63.542 26.614 64.856 22.996L63.416 22.294L63.038 22.384H62.66ZM66.764 21.772L64.856 22.366C66.368 26.056 68.87 29.062 72.29 30.646C72.632 30.07 73.28 29.224 73.766 28.81C70.544 27.532 68.024 24.832 66.764 21.772ZM57.458 25.696C58.25 26.218 59.222 26.974 59.672 27.514L60.878 26.2C60.41 25.66 59.42 24.958 58.628 24.508L57.458 25.696ZM69.536 21.88C68.852 22.672 67.664 23.716 66.8 24.328L68.096 25.336C68.996 24.76 70.166 23.878 71.156 23.032L69.536 21.88ZM71.57 23.986C70.832 24.814 69.572 25.876 68.636 26.524L69.932 27.532C70.886 26.938 72.128 26.002 73.154 25.102L71.57 23.986ZM61.706 31.078H68.024V32.626H61.706V31.078ZM59.528 29.35V34.336H70.346V29.35H59.528ZM60.734 34.804C61.112 35.416 61.472 36.28 61.58 36.82L63.614 36.118C63.47 35.578 63.092 34.768 62.678 34.192L60.734 34.804ZM67.178 34.282C66.962 35.002 66.494 36.01 66.116 36.658L68.006 37.09C68.384 36.496 68.816 35.632 69.284 34.732L67.178 34.282ZM81.722 21.736V36.586H84.134V21.736H81.722ZM87.95 30.754V38.602H90.362V30.754H87.95ZM76.466 23.248V29.818H89.642V23.23H87.248V27.712H78.752V23.248H76.466ZM75.512 30.772V37.63H89.066V35.47H77.942V30.772H75.512Z" fill="#44444F"/>
</svg>
