<svg width="178" height="58" viewBox="0 0 178 58" fill="none" xmlns="http://www.w3.org/2000/svg">
<path d="M28 28.816C29.355 28.816 30.872 28.666 31.84 27.56C32.654 26.63 32.918 25.192 32.646 23.168C32.266 20.343 30.529 18.656 28 18.656C25.471 18.656 23.734 20.343 23.354 23.17C23.082 25.192 23.346 26.63 24.16 27.56C25.128 28.667 26.645 28.816 28 28.816V28.816ZM24.84 23.368C25.002 22.168 25.627 20.156 28 20.156C30.373 20.156 30.998 22.169 31.16 23.368C31.367 24.918 31.217 25.995 30.71 26.573C30.255 27.093 29.444 27.316 28 27.316C26.556 27.316 25.745 27.093 25.29 26.573C24.783 25.995 24.633 24.917 24.84 23.368ZM36.28 36.236C35.403 32.71 31.998 30.246 28 30.246C24.002 30.246 20.597 32.71 19.72 36.236C19.548 36.928 19.692 37.636 20.115 38.176C20.523 38.696 21.155 38.996 21.848 38.996H34.152C34.845 38.996 35.477 38.696 35.885 38.176C36.309 37.636 36.452 36.929 36.279 36.236H36.28ZM34.704 37.252C34.578 37.412 34.388 37.498 34.152 37.498H21.848C21.613 37.498 21.422 37.413 21.296 37.252C21.159 37.078 21.116 36.84 21.176 36.598C21.886 33.743 24.693 31.748 28 31.748C31.307 31.748 34.114 33.742 34.824 36.598C34.884 36.84 34.841 37.078 34.704 37.252V37.252Z" fill="#44444F"/>
<path d="M62.102 22.636V38.602H64.064V24.508H70.868V38.458H72.92V22.636H62.102ZM64.532 26.722V28.288H70.454V26.722H64.532ZM63.11 35.668V37.558H71.858V35.668H63.11ZM66.602 24.886V30.664H68.276V24.886H66.602ZM66.548 31.348H68.384V33.22H66.548V31.348ZM65 29.854V34.714H70.022V29.854H65ZM59.87 21.772C59.06 24.346 57.674 26.938 56.162 28.594C56.504 29.152 57.044 30.412 57.206 30.934C59.078 28.81 60.806 25.48 61.85 22.366L59.87 21.772ZM58.394 26.704V38.638H60.446V24.688L60.428 24.67L58.394 26.704ZM81.578 21.736C81.488 24.814 81.83 32.896 74.504 36.838C75.206 37.324 75.908 38.008 76.304 38.584C83.828 34.156 83.936 25.462 84.044 21.736H81.578ZM83.846 23.932L81.758 24.166C82.028 25.966 82.622 34.966 90.002 38.476C90.326 37.864 90.938 37.126 91.586 36.622C84.566 33.49 83.99 25.39 83.846 23.932ZM97.166 31.51H104.996V32.284H97.166V31.51ZM97.166 33.508H104.996V34.3H97.166V33.508ZM97.166 29.53H104.996V30.286H97.166V29.53ZM95.078 28.234V35.578H107.174V28.234H95.078ZM102.422 36.46C104.204 37.126 106.058 38.008 107.102 38.602L109.028 37.45C107.804 36.838 105.698 35.974 103.844 35.326L102.422 36.46ZM98.012 35.398C96.788 36.1 94.646 36.73 92.738 37.072C93.224 37.45 93.962 38.242 94.34 38.656C96.176 38.152 98.516 37.252 99.992 36.298L98.012 35.398ZM100.1 22.816V24.382H107.39V22.816H100.1ZM100.244 21.61C99.848 22.834 99.092 24.04 98.138 24.832C98.588 25.084 99.38 25.606 99.74 25.912C100.712 25.012 101.63 23.536 102.134 22.042L100.244 21.61ZM102.08 24.022V24.652C102.08 25.372 101.54 26.254 97.112 26.596C97.49 26.992 98.03 27.73 98.228 28.216C103.322 27.64 104.042 26.056 104.042 24.742V24.022H102.08ZM103.862 24.742L102.35 25.048C103.43 26.866 105.392 27.856 108.2 28.198C108.434 27.658 108.956 26.884 109.37 26.47C106.778 26.344 104.798 25.822 103.862 24.742ZM93.116 22.6V24.184H97.742V22.6H93.116ZM92.72 25.39V27.028H98.174V25.39H92.72ZM106.634 22.816V23.068C106.346 23.842 105.842 24.796 105.428 25.408L107.084 26.038C107.66 25.318 108.29 24.184 108.74 23.176L107.264 22.726L106.958 22.816H106.634ZM113.402 21.718V38.62H115.4V21.718H113.402ZM110.684 27.712V29.728H118.064V27.712H110.684ZM110.648 23.212C111.08 24.526 111.44 26.29 111.476 27.406L113.096 27.01C113.024 25.858 112.646 24.148 112.16 22.834L110.648 23.212ZM116.588 22.744C116.39 24.004 115.958 25.822 115.58 26.956L116.948 27.334C117.398 26.272 117.938 24.562 118.406 23.122L116.588 22.744ZM123.392 21.7V38.602H125.426V21.7H123.392ZM118.01 32.968L118.352 34.984L127.586 33.31L127.262 31.312L118.01 32.968ZM119.036 24.166C120.044 24.814 121.304 25.804 121.844 26.506L122.978 24.868C122.384 24.202 121.106 23.302 120.098 22.69L119.036 24.166ZM118.226 28.702C119.27 29.314 120.584 30.286 121.196 30.952L122.276 29.242C121.628 28.576 120.278 27.712 119.234 27.154L118.226 28.702ZM112.142 30.412C111.872 31.78 111.152 33.436 110.396 34.354C110.738 35.074 111.188 36.172 111.368 36.928C112.52 35.632 113.276 33.04 113.654 30.934L112.142 30.412ZM116.066 30.466L114.896 31.312C115.382 32.266 116.246 34.282 116.588 35.398L118.082 33.76C117.794 33.22 116.444 30.97 116.066 30.466Z" fill="#44444F"/>
</svg>
