<?xml version="1.0" encoding="utf-8"?>
<!-- Generator: Adobe Illustrator 24.0.1, SVG Export Plug-In . SVG Version: 6.00 Build 0)  -->
<svg version="1.1" id="Layer_1" xmlns="http://www.w3.org/2000/svg" xmlns:xlink="http://www.w3.org/1999/xlink" x="0px" y="0px"
	 viewBox="0 0 30 30" style="enable-background:new 0 0 30 30;" xml:space="preserve">
<style type="text/css">
	.st0{fill:#657786;}
</style>
<path class="st0" d="M15,25L15,25C11.8,25,2.4,16.6,2.4,8.6c0-3.8,3.2-7.2,6.8-7.2c2.9,0,4.8,2,5.8,3.4c1-1.4,2.9-3.4,5.8-3.4
	c3.6,0,6.8,3.4,6.8,7.2C27.6,16.6,18.2,25,15,25L15,25L15,25z M9.2,3.3c-2.6,0-4.9,2.5-4.9,5.3c0,7.2,8.8,14.5,10.7,14.6
	c1.9-0.1,10.7-7.4,10.7-14.6c0-2.8-2.3-5.3-4.9-5.3c-3.2,0-4.9,3.7-4.9,3.7c-0.3,0.7-1.4,0.7-1.7,0C14.1,6.9,12.4,3.3,9.2,3.3
	L9.2,3.3z"/>
</svg>
