<?xml version="1.0" encoding="utf-8"?>
<!-- Generator: Adobe Illustrator 24.0.1, SVG Export Plug-In . SVG Version: 6.00 Build 0)  -->
<svg version="1.1" id="Layer_1" xmlns="http://www.w3.org/2000/svg" xmlns:xlink="http://www.w3.org/1999/xlink" x="0px" y="0px"
	 viewBox="0 0 30 30" style="enable-background:new 0 0 30 30;" xml:space="preserve">
<style type="text/css">
	.st0{fill:#657786;}
</style>
<path class="st0" d="M17.6,1.8h-5.2l0,0c-5.5,0-9.7,4.3-9.7,9.8c0,5.1,4,9,9.3,9.2v4.8c0,0.1,0.1,0.4,0.2,0.5
	c0.2,0.3,0.5,0.4,0.8,0.4c0.2,0,0.3,0,0.5-0.1c0.3-0.2,8.1-5.2,10.1-6.9c2.4-2,3.8-5,3.8-7.9l0,0C27.3,6.1,23,1.8,17.6,1.8L17.6,1.8
	z M22.3,18c-1.4,1.2-6.1,4.3-8.5,5.8v-4c0-0.5-0.4-0.9-0.9-0.9h-0.5c-4.6,0-7.9-3.1-7.9-7.4c0-4.4,3.5-7.9,7.9-7.9h5.2l0,0
	c4.4,0,7.9,3.5,7.9,7.9C25.4,13.9,24.3,16.4,22.3,18L22.3,18z"/>
</svg>
