<svg width="18" height="24" viewBox="0 0 18 24" fill="none" xmlns="http://www.w3.org/2000/svg">
<g id="Group">
<path id="Vector" d="M9.00292 23.2738C8.91992 23.2738 8.83592 23.2598 8.75492 23.2318C8.45492 23.1268 8.25292 22.8418 8.25292 22.5238V18.3838C6.17292 18.2118 4.23992 17.3178 2.74692 15.8238C-0.703076 12.3738 -0.703076 6.7618 2.74692 3.3138C6.19692 -0.134199 11.8089 -0.136199 15.2589 3.3138C18.3549 6.4108 18.7089 11.3838 16.0789 14.8788L9.58892 22.9908C9.44292 23.1728 9.22592 23.2728 9.00192 23.2728L9.00292 23.2738ZM9.00292 2.2238C7.12092 2.2238 5.23992 2.9408 3.80792 4.3738C0.943924 7.2368 0.943924 11.8978 3.80792 14.7638C5.19592 16.1508 7.04092 16.9138 9.00292 16.9138C9.41692 16.9138 9.75292 17.2508 9.75292 17.6638V20.3838L14.8949 13.9588C17.0649 11.0738 16.7709 6.9448 14.1989 4.3718C12.7649 2.9418 10.8829 2.2238 9.00192 2.2238H9.00292Z" fill="black"/>
<path id="Vector_2" d="M12.55 8.69971H5.44995C5.03695 8.69971 4.69995 8.36271 4.69995 7.94971C4.69995 7.53671 5.03695 7.19971 5.44995 7.19971H12.55C12.963 7.19971 13.3 7.53471 13.3 7.94971C13.3 8.36471 12.963 8.69971 12.55 8.69971ZM9.49995 11.9377H5.44995C5.03695 11.9377 4.69995 11.6017 4.69995 11.1877C4.69995 10.7737 5.03695 10.4377 5.44995 10.4377H9.49995C9.91395 10.4377 10.25 10.7737 10.25 11.1877C10.25 11.6017 9.91395 11.9377 9.49995 11.9377Z" fill="black"/>
</g>
</svg>
