<svg width="18" height="24" viewBox="0 0 18 24" fill="none" xmlns="http://www.w3.org/2000/svg">
<g id="Group">
<path id="Vector" d="M15.265 3.31406C11.815 -0.135937 6.19497 -0.135937 2.74497 3.31406C-0.705029 6.75406 -0.705029 12.3741 2.74497 15.8241C4.24497 17.3141 6.17497 18.2041 8.25497 18.3841V22.5241C8.25497 22.8341 8.45497 23.1241 8.75497 23.2241C8.83497 23.2541 8.92497 23.2741 9.00497 23.2741C9.22497 23.2741 9.44497 23.1741 9.59497 22.9841L16.085 14.8741C18.715 11.3841 18.355 6.40406 15.265 3.31406ZM4.70497 11.1841C4.70497 10.7741 5.03497 10.4341 5.45497 10.4341H9.50497C9.91497 10.4341 10.255 10.7741 10.255 11.1841C10.255 11.5941 9.91497 11.9341 9.50497 11.9341H5.45497C5.03497 11.9341 4.70497 11.5941 4.70497 11.1841ZM13.305 7.94406C13.305 8.36406 12.965 8.69406 12.555 8.69406H5.45497C5.03497 8.69406 4.70497 8.36406 4.70497 7.94406C4.70497 7.53406 5.03497 7.19406 5.45497 7.19406H12.555C12.965 7.19406 13.305 7.53406 13.305 7.94406Z" fill="black"/>
</g>
</svg>
