<svg width="16" height="16" viewBox="0 0 16 16" fill="none" xmlns="http://www.w3.org/2000/svg">
<g id="Group">
<path id="Vector" d="M9.41412 7.99988L15.2071 2.20687C15.5971 1.81687 15.5971 1.18388 15.2071 0.792875C14.8171 0.401875 14.1841 0.402875 13.7931 0.792875L8.00012 6.58588L2.20712 0.792875C1.81712 0.402875 1.18412 0.402875 0.793119 0.792875C0.402119 1.18288 0.403119 1.81587 0.793119 2.20687L6.58612 7.99988L0.793119 13.7929C0.403119 14.1829 0.403119 14.8159 0.793119 15.2069C0.988119 15.4019 1.24312 15.4999 1.50012 15.4999C1.75712 15.4999 2.01212 15.4019 2.20712 15.2069L8.00012 9.41387L13.7931 15.2069C13.9881 15.4019 14.2431 15.4999 14.5001 15.4999C14.7571 15.4999 15.0121 15.4019 15.2071 15.2069C15.5971 14.8169 15.5971 14.1839 15.2071 13.7929L9.41412 7.99988Z" fill="#171725"/>
</g>
</svg>
