<svg width="22" height="21" viewBox="0 0 22 21" fill="none" xmlns="http://www.w3.org/2000/svg">
<g id="Group">
<path id="Vector" d="M21.46 5.5699L11.357 0.114902C11.134 -0.00509766 10.867 -0.00509766 10.644 0.114902L0.542993 5.5699C0.178993 5.7669 0.0429934 6.2219 0.239993 6.5869C0.374993 6.8369 0.633993 6.9799 0.899993 6.9799C1.01999 6.9799 1.14299 6.9499 1.25599 6.8899L2.07099 6.4499L3.69999 17.9629C3.91399 19.1779 5.00799 20.0249 6.35799 20.0249H15.64C16.992 20.0249 18.085 19.1769 18.303 17.9379L19.929 6.4479L20.747 6.8899C21.111 7.0829 21.567 6.9499 21.764 6.5859C21.96 6.2229 21.824 5.7679 21.46 5.5699ZM16.822 17.7029C16.715 18.3089 16.119 18.5249 15.642 18.5249H6.35999C5.87999 18.5249 5.28499 18.3089 5.18199 17.7269L3.47999 5.6899L11 1.6279L18.522 5.6879L16.822 17.7029Z" fill="#171725"/>
<path id="Vector_2" d="M7.21997 10.1838C7.21997 12.2678 8.91497 13.9638 11 13.9638C13.085 13.9638 14.78 12.2678 14.78 10.1838C14.78 8.09981 13.085 6.40381 11 6.40381C8.91497 6.40381 7.21997 8.09981 7.21997 10.1838ZM13.28 10.1838C13.28 11.4418 12.258 12.4638 11 12.4638C9.74197 12.4638 8.71997 11.4418 8.71997 10.1838C8.71997 8.92581 9.74197 7.90381 11 7.90381C12.258 7.90381 13.28 8.92581 13.28 10.1838Z" fill="#171725"/>
</g>
</svg>
