<svg width="20" height="19" viewBox="0 0 20 19" fill="none" xmlns="http://www.w3.org/2000/svg">
<g id="Group">
<path id="Vector" d="M9.55 9.082C9.823 9.264 10.177 9.264 10.45 9.082L20 2.716V2.5C20 1.26 18.99 0.25 17.75 0.25H2.25C1.01 0.25 0 1.26 0 2.5V2.697L9.55 9.082Z" fill="black"/>
<path id="Vector_2" d="M11.26 10.2951C10.877 10.5501 10.44 10.6771 10 10.6771C9.56 10.6771 9.123 10.5501 8.74 10.2941L0 4.45215V16.1221C0 17.3621 1.01 18.3721 2.25 18.3721H17.75C18.99 18.3721 20 17.3621 20 16.1221V4.47015L11.26 10.2931V10.2951Z" fill="black"/>
</g>
</svg>
