<svg width="18" height="21" viewBox="0 0 18 21" fill="none" xmlns="http://www.w3.org/2000/svg">
<g id="Group">
<path id="Vector" d="M8.99991 10.8158C10.3549 10.8158 11.8719 10.6658 12.8399 9.55976C13.6539 8.62976 13.9179 7.19176 13.6459 5.16776C13.2659 2.34276 11.5289 0.655762 8.99991 0.655762C6.47091 0.655762 4.73391 2.34276 4.35391 5.16976C4.08191 7.19176 4.3459 8.62976 5.1599 9.55976C6.1279 10.6668 7.64491 10.8158 8.99991 10.8158ZM5.83991 5.36776C6.00191 4.16776 6.62691 2.15576 8.99991 2.15576C11.3729 2.15576 11.9979 4.16876 12.1599 5.36776C12.3669 6.91776 12.2169 7.99476 11.7099 8.57276C11.2549 9.09276 10.4439 9.31576 8.99991 9.31576C7.55591 9.31576 6.7449 9.09276 6.28991 8.57276C5.78291 7.99476 5.63291 6.91676 5.83991 5.36776ZM17.2799 18.2358C16.4029 14.7098 12.9979 12.2458 8.99991 12.2458C5.00191 12.2458 1.59691 14.7098 0.719905 18.2358C0.547905 18.9278 0.691905 19.6358 1.1149 20.1758C1.5229 20.6958 2.15491 20.9958 2.84791 20.9958H15.1519C15.8449 20.9958 16.4769 20.6958 16.8849 20.1758C17.3089 19.6358 17.4519 18.9288 17.2789 18.2358H17.2799ZM15.7039 19.2518C15.5779 19.4118 15.3879 19.4978 15.1519 19.4978H2.84791C2.61291 19.4978 2.42191 19.4128 2.29591 19.2518C2.15891 19.0778 2.11591 18.8398 2.17591 18.5978C2.88591 15.7428 5.69291 13.7478 8.99991 13.7478C12.3069 13.7478 15.1139 15.7418 15.8239 18.5978C15.8839 18.8398 15.8409 19.0778 15.7039 19.2518Z" fill="#171725"/>
</g>
</svg>
