<svg width="20" height="20" viewBox="0 0 20 20" fill="none" xmlns="http://www.w3.org/2000/svg">
<path d="M17.708 20H2.292C1.028 20 0 18.972 0 17.708V5.375C0 4.11 1.028 3.083 2.292 3.083H4.438C5.633 1.17 7.722 0 10 0C12.277 0 14.367 1.17 15.562 3.083H17.708C18.972 3.083 20 4.11 20 5.375V17.708C20 18.972 18.972 20 17.708 20ZM2.292 4.583C1.855 4.583 1.5 4.938 1.5 5.375V17.708C1.5 18.145 1.855 18.5 2.292 18.5H17.708C18.145 18.5 18.5 18.145 18.5 17.708V5.375C18.5 4.938 18.145 4.583 17.708 4.583H15.258C14.941 4.633 14.626 4.488 14.476 4.201C13.596 2.536 11.882 1.501 10 1.501C8.117 1.501 6.402 2.536 5.524 4.203C5.364 4.505 5.022 4.663 4.691 4.583H2.293H2.292Z" fill="white"/>
<path d="M10.0001 6.16699C7.32014 6.16699 5.14014 8.34699 5.14014 11.027C5.14014 13.707 7.32014 15.887 10.0001 15.887C12.6801 15.887 14.8601 13.707 14.8601 11.027C14.8601 8.34699 12.6801 6.16699 10.0001 6.16699ZM12.0001 11.75H10.7501V13C10.7501 13.414 10.4141 13.75 10.0001 13.75C9.58614 13.75 9.25014 13.414 9.25014 13V11.75H8.00014C7.58614 11.75 7.25014 11.414 7.25014 11C7.25014 10.586 7.58614 10.25 8.00014 10.25H9.25014V8.99999C9.25014 8.58599 9.58614 8.24999 10.0001 8.24999C10.4141 8.24999 10.7501 8.58599 10.7501 8.99999V10.25H12.0001C12.4141 10.25 12.7501 10.586 12.7501 11C12.7501 11.414 12.4141 11.75 12.0001 11.75Z" fill="white"/>
</svg>
